<?xml version="1.0" encoding="UTF-8" standalone="no"?>
<!-- Created with Inkscape (http://www.inkscape.org/) -->

<svg
   width="24"
   height="22"
   id="svg3199"
   version="1.1"
   inkscape:version="1.1 (c4e8f9ed74, 2021-05-24)"
   sodipodi:docname="checkbox-focusedMOD.svg"
   xmlns:inkscape="http://www.inkscape.org/namespaces/inkscape"
   xmlns:sodipodi="http://sodipodi.sourceforge.net/DTD/sodipodi-0.dtd"
   xmlns:xlink="http://www.w3.org/1999/xlink"
   xmlns="http://www.w3.org/2000/svg"
   xmlns:svg="http://www.w3.org/2000/svg"
   xmlns:rdf="http://www.w3.org/1999/02/22-rdf-syntax-ns#"
   xmlns:cc="http://creativecommons.org/ns#"
   xmlns:dc="http://purl.org/dc/elements/1.1/">
  <defs
     id="defs3201">
    <linearGradient
       id="linearGradient15404"
       inkscape:collect="always">
      <stop
         id="stop15406"
         offset="0"
         style="stop-color:#515151;stop-opacity:1" />
      <stop
         id="stop15408"
         offset="1"
         style="stop-color:#292929;stop-opacity:1" />
    </linearGradient>
    <inkscape:perspective
       sodipodi:type="inkscape:persp3d"
       inkscape:vp_x="0 : 526.18109 : 1"
       inkscape:vp_y="0 : 1000 : 0"
       inkscape:vp_z="744.09448 : 526.18109 : 1"
       inkscape:persp3d-origin="372.04724 : 350.78739 : 1"
       id="perspective3207" />
    <inkscape:perspective
       id="perspective3187"
       inkscape:persp3d-origin="0.5 : 0.33333333 : 1"
       inkscape:vp_z="1 : 0.5 : 1"
       inkscape:vp_y="0 : 1000 : 0"
       inkscape:vp_x="0 : 0.5 : 1"
       sodipodi:type="inkscape:persp3d" />
    <linearGradient
       inkscape:collect="always"
       xlink:href="#linearGradient5872-5-1"
       id="linearGradient5891-0-4"
       gradientUnits="userSpaceOnUse"
       x1="205.84143"
       y1="246.7094"
       x2="206.74803"
       y2="231.24142" />
    <linearGradient
       inkscape:collect="always"
       id="linearGradient5872-5-1">
      <stop
         style="stop-color:#0b2e52;stop-opacity:1"
         offset="0"
         id="stop5874-4-4" />
      <stop
         style="stop-color:#1862af;stop-opacity:1"
         offset="1"
         id="stop5876-0-5" />
    </linearGradient>
    <inkscape:path-effect
       effect="spiro"
       id="path-effect5837-4-6"
       is_visible="true" />
    <inkscape:path-effect
       effect="spiro"
       id="path-effect14768"
       is_visible="true" />
    <inkscape:path-effect
       effect="spiro"
       id="path-effect5884-4-7"
       is_visible="true" />
    <linearGradient
       y2="-388.72955"
       x2="-93.031357"
       y1="-396.34738"
       x1="-93.031357"
       gradientTransform="matrix(1.5918367,0,0,0.85714285,-256.56122,59.685418)"
       gradientUnits="userSpaceOnUse"
       id="linearGradient14219"
       xlink:href="#linearGradient15404"
       inkscape:collect="always" />
    <linearGradient
       inkscape:collect="always"
       id="linearGradient10013-4-63-6">
      <stop
         style="stop-color:#333333;stop-opacity:1;"
         offset="0"
         id="stop10015-2-76-1" />
      <stop
         style="stop-color:#292929;stop-opacity:1"
         offset="1"
         id="stop10017-46-15-8" />
    </linearGradient>
    <linearGradient
       inkscape:collect="always"
       id="linearGradient10597-5">
      <stop
         style="stop-color:#16191a;stop-opacity:1;"
         offset="0"
         id="stop10599-2" />
      <stop
         style="stop-color:#2b3133;stop-opacity:1"
         offset="1"
         id="stop10601-5" />
    </linearGradient>
    <linearGradient
       y2="-322.16354"
       x2="921.22498"
       y1="-330.05121"
       x1="921.32812"
       gradientTransform="matrix(1.5918367,0,0,0.85714285,-1456.5464,275.45191)"
       gradientUnits="userSpaceOnUse"
       id="linearGradient15374"
       xlink:href="#linearGradient10013-4-63-6"
       inkscape:collect="always" />
    <linearGradient
       gradientTransform="translate(-1199.9852,216.38048)"
       y2="-227.07961"
       x2="1203.9177"
       y1="-217.56708"
       x1="1203.9177"
       gradientUnits="userSpaceOnUse"
       id="linearGradient15376"
       xlink:href="#linearGradient10597-5"
       inkscape:collect="always" />
    <linearGradient
       inkscape:collect="always"
       xlink:href="#linearGradient5581-5-2-4-6-8-7-35-8"
       id="linearGradient11811"
       gradientUnits="userSpaceOnUse"
       gradientTransform="matrix(3.0317573,0,0,1.0053174,-102.66338,-0.82153381)"
       x1="63.568954"
       y1="127.16142"
       x2="63.568954"
       y2="152.6618" />
    <linearGradient
       id="linearGradient5581-5-2-4-6-8-7-35-8">
      <stop
         id="stop5583-0-92-8-0-7-6-5-1"
         offset="0"
         style="stop-color:#454c4c;stop-opacity:1;" />
      <stop
         style="stop-color:#393f3f;stop-opacity:1;"
         offset="0.40000001"
         id="stop5585-4-7-2-7-9-9-92-0" />
      <stop
         id="stop5587-6-7-2-0-3-1-21-5"
         offset="1"
         style="stop-color:#2d3232;stop-opacity:1;" />
    </linearGradient>
  </defs>
  <sodipodi:namedview
     id="base"
     pagecolor="#a2a2a2"
     bordercolor="#2d2d2d"
     borderopacity="1"
     inkscape:pageopacity="1"
     inkscape:pageshadow="2"
     inkscape:zoom="32"
     inkscape:cx="-3.015625"
     inkscape:cy="9.96875"
     inkscape:document-units="px"
     inkscape:current-layer="layer1"
     showgrid="false"
     inkscape:window-width="2560"
     inkscape:window-height="1044"
     inkscape:window-x="0"
     inkscape:window-y="0"
     inkscape:window-maximized="1"
     borderlayer="true"
     inkscape:showpageshadow="false"
     inkscape:snap-nodes="false"
     inkscape:snap-bbox="true"
     showborder="true"
     inkscape:pagecheckerboard="0">
    <inkscape:grid
       type="xygrid"
       id="grid14843"
       empspacing="5"
       visible="true"
       enabled="true"
       snapvisiblegridlinesonly="true" />
  </sodipodi:namedview>
  <metadata
     id="metadata3204">
    <rdf:RDF>
      <cc:Work
         rdf:about="">
        <dc:format>image/svg+xml</dc:format>
        <dc:type
           rdf:resource="http://purl.org/dc/dcmitype/StillImage" />
      </cc:Work>
    </rdf:RDF>
  </metadata>
  <g
     inkscape:label="Layer 1"
     inkscape:groupmode="layer"
     id="layer1"
     transform="translate(-342.5,-521.36218)">
    <g
       style="display:inline"
       id="use5671"
       transform="matrix(1.3594109,0,0,1.3564242,319.2059,481.99447)">
      <rect
         transform="matrix(0.47304779,0,0,0.4807373,-6.3607039,-29.396216)"
         rx="4.4136767"
         y="125.3458"
         x="50.440369"
         height="29.154205"
         width="29.559635"
         id="rect11803"
         style="color:#000000;fill:url(#linearGradient11811);fill-opacity:1;stroke:#3465a4;stroke-width:1.54426003000000001;stroke-linecap:butt;stroke-linejoin:round;stroke-miterlimit:4;stroke-opacity:1;stroke-dasharray:none;stroke-dashoffset:0;marker:none;visibility:visible;display:inline;overflow:visible;enable-background:accumulate"
         ry="4.4233952" />
      <path
         inkscape:connector-curvature="0"
         id="path11809"
         d="m 17.87105,33.844107 0,-0.773112 c 0,-1.031264 0.807171,-1.836142 1.811982,-1.836142 l 9.612456,0 c 1.004811,0 1.787822,0.804878 1.787822,1.836142 l 0,0.773112 c 0,-1.031264 -0.783011,-1.836142 -1.787822,-1.836142 l -9.612456,0 c -1.004811,0 -1.811982,0.804878 -1.811982,1.836142 z"
         style="font-size:medium;font-style:normal;font-variant:normal;font-weight:normal;font-stretch:normal;text-indent:0;text-align:start;text-decoration:none;line-height:normal;letter-spacing:normal;word-spacing:normal;text-transform:none;direction:ltr;block-progression:tb;writing-mode:lr-tb;text-anchor:start;baseline-shift:baseline;opacity:0.15;color:#000000;fill:#ffffff;fill-opacity:1;fill-rule:nonzero;stroke:none;stroke-width:1.00000012;marker:none;visibility:visible;display:inline;overflow:visible;enable-background:accumulate;font-family:Sans;-inkscape-font-specification:Sans"
         sodipodi:nodetypes="csssscssc" />
      <path
         sodipodi:nodetypes="csssscssc"
         style="font-size:medium;font-style:normal;font-variant:normal;font-weight:normal;font-stretch:normal;text-indent:0;text-align:start;text-decoration:none;line-height:normal;letter-spacing:normal;word-spacing:normal;text-transform:none;direction:ltr;block-progression:tb;writing-mode:lr-tb;text-anchor:start;baseline-shift:baseline;opacity:0.15;color:#000000;fill:#ffffff;fill-opacity:1;fill-rule:nonzero;stroke:none;stroke-width:1.00000012;marker:none;visibility:visible;display:inline;overflow:visible;enable-background:accumulate;font-family:Sans;-inkscape-font-specification:Sans"
         d="m 17.87105,41.158551 0,0.773112 c 0,1.031264 0.807171,1.836142 1.811982,1.836142 l 9.612456,0 c 1.004811,0 1.787822,-0.804878 1.787822,-1.836142 l 0,-0.773112 c 0,1.031264 -0.783011,1.836142 -1.787822,1.836142 l -9.612456,0 c -1.004811,0 -1.811982,-0.804878 -1.811982,-1.836142 z"
         id="path11867"
         inkscape:connector-curvature="0" />
      <path
         inkscape:connector-curvature="0"
         id="path11869"
         d="m 17.87105,41.895784 0,0.773112 c 0,1.031264 0.644622,1.836142 1.649433,1.836142 l 10.067593,0 c 1.004811,0 1.495234,-0.804878 1.495234,-1.836142 l 0,-0.773112 c 0,1.031264 -0.783011,1.836142 -1.787822,1.836142 l -9.612456,0 c -1.004811,0 -1.811982,-0.804878 -1.811982,-1.836142 z"
         style="font-size:medium;font-style:normal;font-variant:normal;font-weight:normal;font-stretch:normal;text-indent:0;text-align:start;text-decoration:none;line-height:normal;letter-spacing:normal;word-spacing:normal;text-transform:none;direction:ltr;block-progression:tb;writing-mode:lr-tb;text-anchor:start;baseline-shift:baseline;opacity:0.15;color:#000000;fill:#000000;fill-opacity:0.85253451;fill-rule:nonzero;stroke:none;stroke-width:1.00000012;marker:none;visibility:visible;display:inline;overflow:visible;enable-background:accumulate;font-family:Sans;-inkscape-font-specification:Sans"
         sodipodi:nodetypes="csssscssc" />
    </g>
    <rect
       style="color:#000000;fill:none;stroke:none;stroke-width:2;marker:none;visibility:visible;display:inline;overflow:visible;enable-background:accumulate"
       id="rect17347"
       width="21.943846"
       height="21.943846"
       x="342.29913"
       y="521.58435" />
    <path
       inkscape:connector-curvature="0"
       style="opacity:0.8;color:#000000;fill:#000000;fill-opacity:1;stroke:none;stroke-width:0.99999994;marker:none;visibility:visible;display:inline;overflow:visible;enable-background:accumulate"
       d="m 359.97505,524.8252 -7.88606,7.71465 -2.57155,-2.57155 -2.91442,-0.0427 0,2.35727 4.02875,3.98587 c 0.80342,0.80309 2.111,0.80309 2.91442,0 l 8.18609,-8.22894 0,-0.38573 c 0,-1.24128 0.19944,-1.76801 -0.82915,-2.29836 z"
       id="rect5147-9-1-5-7-6-5-8-7"
       sodipodi:nodetypes="ccccccccscc" />
    <path
       style="font-size:medium;font-style:normal;font-variant:normal;font-weight:normal;font-stretch:normal;text-indent:0;text-align:start;text-decoration:none;line-height:normal;letter-spacing:normal;word-spacing:normal;text-transform:none;direction:ltr;block-progression:tb;writing-mode:lr-tb;text-anchor:start;baseline-shift:baseline;color:#000000;fill:#eeeeec;fill-opacity:1;stroke:none;stroke-width:3;marker:none;visibility:visible;display:inline;overflow:visible;enable-background:accumulate;font-family:sans-serif;-inkscape-font-specification:sans-serif"
       d="m 361.65223,524.52745 -9.5602,9.36735 -2.56345,-2.56344 -2.92846,-0.0214 0.0153,2.32639 4.02203,4.02206 c 0.80341,0.80309 2.10565,0.80309 2.90906,0 l 10.95049,-11.05765 0.003,-2.1502 z"
       id="path12830-4-17-0"
       inkscape:connector-curvature="0"
       sodipodi:nodetypes="cccccccccc" />
    <path
       style="fill:#2aff80;stroke-width:0.0441942"
       d="M 2.9521324,21.961565 C 2.2373175,21.884505 1.5844047,21.562981 1.0359248,21.017937 0.45196383,20.437635 0.13929707,19.793245 0.0458349,18.977413 c -0.06156258,-0.53738 -0.06156258,-13.4200093 0,-13.9573895 0.16309534,-1.4236604 1.1615839,-2.5786329 2.5202507,-2.9152263 0.2618773,-0.064877 0.9838582,-0.071802 7.4246212,-0.071212 7.7006722,7.051e-4 7.3564372,-0.00922 7.9226162,0.2284857 0.315047,0.1322717 0.759961,0.423429 1.02388,0.6700411 l 0.220971,0.20648 -0.353553,0.3293744 -0.353553,0.3293745 -0.176777,-0.170894 C 18.01937,3.3800088 17.70042,3.192456 17.346213,3.0807069 l -0.309359,-0.0976 H 10.00998 c -7.7302338,0 -7.1924412,-0.019375 -7.7729333,0.2800361 -0.5192146,0.2678047 -0.926912,0.7460261 -1.140738,1.338064 L 0.99436891,4.8834562 v 7.1152618 7.115262 l 0.11597029,0.317144 c 0.3342871,0.914175 0.9740135,1.443798 1.8903527,1.565005 0.2168422,0.02868 2.8196883,0.03974 7.3407451,0.0312 l 7.004776,-0.01324 0.253369,-0.09668 c 0.50449,-0.192498 0.842272,-0.503521 1.082003,-0.996292 0.183502,-0.377188 0.271229,-0.649468 0.321718,-0.99852 0.02543,-0.175797 0.04299,-2.390783 0.04351,-5.488358 l 8.76e-4,-5.1936046 0.464925,-0.4632496 0.464925,-0.463249 -0.01318,5.9662132 c -0.01235,5.591326 -0.01817,5.982875 -0.09259,6.231379 -0.354209,1.182701 -1.22305,2.042205 -2.40199,2.376178 l -0.344535,0.0976 -6.916388,0.0064 c -3.8040134,0.0035 -7.0695381,-0.01014 -7.2567216,-0.03032 z"
       id="path97"
       transform="translate(342.5,521.36218)" />
    <path
       style="fill:#2aff80;stroke-width:0.00552427"
       d="M 19.025385,3.0100031 C 18.960175,2.9491167 18.875746,2.8730993 18.837767,2.8410756 18.609434,2.6485483 18.2512,2.4153986 18.010791,2.3028546 17.91402,2.2575521 17.739248,2.1848321 17.683194,2.1665464 17.393194,2.0719432 17.000998,2.0509683 15.280136,2.0380294 14.44945,2.0317837 4.20156,2.0350566 3.9760946,2.0416397 l -0.1091044,0.00319 v -0.025319 -0.025319 l 6.5144978,0.00172 c 6.012007,0.00158 6.5206,0.00242 6.593622,0.010834 0.285249,0.032867 0.496587,0.077502 0.724657,0.1530487 0.154511,0.051181 0.261493,0.094933 0.411558,0.1683146 0.377376,0.1845356 0.69133,0.4174676 0.98171,0.7283597 0.03059,0.032749 0.05456,0.060602 0.05327,0.061894 -0.0013,0.00129 -0.0557,-0.047466 -0.120916,-0.1083525 z"
       id="path175"
       transform="translate(342.5,521.36218)" />
    <path
       style="fill:#2aff80;stroke-width:0.00552427"
       d="M 18.23347,3.6040305 C 18.171854,3.5453042 18.057397,3.4546248 17.973218,3.3978431 17.615928,3.1568389 17.228651,3.0254984 16.79931,2.9997257 c -0.05898,-0.00354 -2.202869,-0.00588 -6.073936,-0.00663 -3.2905329,-6.384e-4 -5.5527222,-0.00278 -5.0270877,-0.00476 0.5256345,-0.00198 3.2897622,-0.00397 6.1425067,-0.00441 l 5.186807,-8.093e-4 0.185547,0.058573 c 0.211273,0.066694 0.3073,0.1016216 0.417181,0.1517403 0.164082,0.074841 0.347029,0.1874661 0.486521,0.29951 0.07497,0.06022 0.17526,0.1525726 0.165728,0.1526149 -0.003,1.11e-5 -0.02514,-0.018668 -0.04911,-0.041514 z"
       id="path214"
       transform="translate(342.5,521.36218)" />
    <path
       style="fill:#2aff80;stroke-width:0.00552427"
       d="M 18.343128,3.6888325 C 18.224625,3.5749357 18.170831,3.5267877 18.103017,3.4739247 17.913238,3.325984 17.701669,3.2080195 17.469127,3.1204862 17.384149,3.088499 17.046622,2.9824579 17.035586,2.9842803 c -0.0053,8.737e-4 0.06483,0.025088 0.155827,0.053809 0.091,0.028722 0.16444,0.053229 0.163208,0.05446 -0.0012,0.00123 -0.03532,-0.00671 -0.07576,-0.017648 -0.143358,-0.038779 -0.298914,-0.064734 -0.449169,-0.074945 -0.05271,-0.00358 -0.703032,-0.00616 -1.787102,-0.00708 l -1.704238,-0.00145 1.265058,-0.00278 c 0.788217,-0.00173 -0.306021,-0.00382 -2.903004,-0.00554 -4.1002353,-0.00272 -7.0834977,7.303e-4 -7.5806824,0.00876 l -0.2527354,0.00408 V 2.5227269 2.0495048 l 0.020716,-7.899e-4 c 0.011394,-4.344e-4 0.2444491,-0.00247 0.5179005,-0.00453 l 0.4971845,-0.00374 -0.5179016,3.819e-4 -0.5179016,3.819e-4 1e-6,-0.022097 1e-6,-0.022097 4.2246869,0.00138 c 2.3235781,7.603e-4 5.2662881,0.0023 6.5393571,0.00342 l 2.31467,0.00204 0.104961,0.014384 c 0.212484,0.02912 0.377379,0.06304 0.54069,0.1112243 0.203215,0.059958 0.352739,0.1190503 0.544829,0.2153166 0.264453,0.1325314 0.474907,0.2722144 0.690534,0.458324 0.06614,0.057088 0.276214,0.2620757 0.276214,0.2695295 0,0.00271 -0.04412,-0.035649 -0.09806,-0.085249 C 18.802078,2.8008884 18.695567,2.7169437 18.474624,2.56949 18.292423,2.447892 18.110745,2.3440543 17.970456,2.2813324 17.86605,2.2346536 17.71174,2.1732242 17.653238,2.155051 17.467719,2.0974209 17.205853,2.0713749 16.647393,2.0550062 16.055774,2.0376656 15.760962,2.0367539 10.485068,2.0359485 l -5.3281603,-8.134e-4 5.2618683,0.00353 c 5.167184,0.00347 5.557055,0.00485 6.159563,0.021809 0.65155,0.018338 0.920125,0.04632 1.119284,0.1166146 0.07869,0.027773 0.262894,0.1076824 0.358392,0.1554707 0.276038,0.1381336 0.606486,0.3599979 0.830002,0.5572673 0.07888,0.06962 0.265617,0.2452712 0.264753,0.2490401 -0.0012,0.00522 -0.694844,0.6507795 -0.699254,0.6507795 -0.0019,0 -0.0507,-0.045368 -0.108388,-0.1008179 z"
       id="path253"
       transform="translate(342.5,521.36218)" />
    <path
       style="fill:#2aff80;stroke-width:0.00552427"
       d="m 18.444248,3.8217723 c -0.0078,-0.010071 -0.04404,-0.050628 -0.08051,-0.090127 -0.03647,-0.039499 -0.06521,-0.072938 -0.06388,-0.074309 0.0013,-0.00137 0.03581,0.030813 0.0766,0.07152 l 0.07417,0.074014 0.03475,-0.033042 c 0.01911,-0.018173 0.178091,-0.1665441 0.35329,-0.3297136 0.175199,-0.1631695 0.319432,-0.2993354 0.320517,-0.302591 0.0011,-0.00326 0.008,4.434e-4 0.01526,0.00822 l 0.01328,0.014139 h -0.01458 c -0.02173,0 0.03378,-0.052705 -0.658996,0.6256633 l -0.0557,0.054537 z"
       id="path292"
       transform="translate(342.5,521.36218)" />
    <path
       style="fill:#2aff80;stroke-width:0.00552427"
       d="M 18.340479,3.6865313 C 18.281288,3.6298157 18.20692,3.5611 18.175216,3.5338296 17.970626,3.3578486 17.714535,3.2094549 17.451174,3.1142799 c -0.09552,-0.034519 -0.408985,-0.132825 -0.412459,-0.1293508 -0.0016,0.00156 0.04896,0.019364 0.112278,0.039558 0.06331,0.020195 0.135553,0.04325 0.160529,0.051234 0.02498,0.00798 0.04439,0.015541 0.04313,0.016792 -0.0013,0.00125 -0.03536,-0.00665 -0.07579,-0.017564 -0.154299,-0.04164 -0.313625,-0.066981 -0.474028,-0.075396 -0.05317,-0.00279 -0.854881,-0.00575 -1.781578,-0.00658 -1.107082,-9.906e-4 -1.47935,-0.00253 -1.085519,-0.00449 0.329661,-0.00164 -1.718739,-0.00227 -4.5520003,-0.0014 -2.8332609,8.716e-4 -5.2340403,0.00295 -5.3350654,0.00461 l -0.1836821,0.00303 V 2.5221099 2.0495048 l 0.031765,-8.009e-4 c 0.01747,-4.405e-4 0.2169658,-0.00249 0.4433228,-0.00455 l 0.4115582,-0.00375 -0.4433243,4.107e-4 -0.4433243,4.107e-4 1.4e-6,-0.022097 1.4e-6,-0.022097 6.1692306,0.0016 c 3.393076,8.796e-4 6.348217,0.00373 6.566978,0.00634 0.43618,0.0052 0.431498,0.00486 0.663875,0.047482 0.57942,0.1062673 1.139754,0.3785742 1.578979,0.76734 0.064,0.056652 0.256879,0.2467993 0.256879,0.2532475 0,0.00271 -0.04164,-0.033297 -0.09253,-0.080021 C 18.801851,2.8015443 18.695338,2.7171753 18.483103,2.5753409 18.213032,2.3948554 17.991979,2.2794599 17.724929,2.1795552 17.476834,2.0867416 17.153376,2.0598411 16.094966,2.0439981 c -0.200531,-0.003 -0.519972,-0.00488 -0.709869,-0.00418 -0.279469,0.00104 -0.298419,0.0015 -0.09944,0.00244 1.029378,0.00487 1.75784,0.026181 2.052267,0.060038 0.217083,0.024964 0.310552,0.049952 0.519281,0.1388292 0.390492,0.166271 0.78905,0.4254762 1.107595,0.7203319 0.156141,0.1445293 0.186575,0.1736069 0.185835,0.1775481 -9.78e-4,0.0052 -0.69442,0.6506395 -0.699026,0.6506395 -0.0019,0 -0.05194,-0.046404 -0.111133,-0.1031191 z M 11.505677,2.0343132 c -0.409418,-7.816e-4 -1.079374,-7.816e-4 -1.488791,0 -0.4094179,7.816e-4 -0.07444,0.00142 0.744395,0.00142 0.818836,0 1.153814,-6.395e-4 0.744396,-0.00142 z m 2.65209,3e-7 c -0.29068,-7.903e-4 -0.767978,-7.904e-4 -1.060661,-2e-7 -0.292682,7.902e-4 -0.05485,0.00144 0.52851,0.00144 0.583363,0 0.822831,-6.465e-4 0.532151,-0.00144 z"
       id="path331"
       transform="translate(342.5,521.36218)" />
    <path
       style="fill:#2aff80;stroke-width:0.00552427"
       d="M 18.337712,3.6841315 C 18.122333,3.4782329 17.979028,3.370786 17.766085,3.2555377 17.615632,3.17411 17.480413,3.120374 17.226869,3.0412525 17.132995,3.011958 17.05246,2.9867438 17.047903,2.9852209 c -0.0053,-0.00178 -0.0063,-9.223e-4 -0.0028,0.00238 0.003,0.00283 0.07389,0.026823 0.157442,0.053319 0.192834,0.061148 0.20503,0.067837 0.05248,0.028785 -0.121928,-0.031213 -0.204618,-0.046242 -0.359078,-0.065264 -0.08338,-0.010269 -3.454897,-0.01764 -7.9604755,-0.017404 -2.2818004,1.193e-4 -4.3556811,0.00192 -4.6086237,0.004 l -0.4598956,0.00378 V 2.5221564 2.0495048 l 0.037289,-7.706e-4 c 0.020509,-4.238e-4 0.1814724,-0.00251 0.3576966,-0.00463 l 0.3204078,-0.00386 -0.3576985,4.883e-4 -0.3576985,4.882e-4 1.9e-6,-0.022523 1.9e-6,-0.022523 6.1692306,0.0022 c 3.393076,0.00121 6.34946,0.00432 6.56974,0.00691 l 0.40051,0.00471 0.10884,0.016576 c 0.351626,0.053551 0.636138,0.1370986 0.930787,0.2733259 0.270164,0.1249066 0.512673,0.2785406 0.741862,0.4699822 0.07937,0.066298 0.320273,0.2981898 0.314972,0.3031894 -0.0015,0.00143 -0.04875,-0.039604 -0.104961,-0.091193 C 18.809894,2.8092579 18.680322,2.7072348 18.478689,2.5730013 18.289264,2.4468946 18.119468,2.3498941 17.969399,2.2820546 17.758628,2.1867752 17.635165,2.1439667 17.498168,2.1186643 17.225471,2.068299 16.715611,2.0467479 15.677883,2.0417234 l -0.488898,-0.00237 0.43918,0.00464 c 1.228325,0.012981 1.699589,0.036853 1.95283,0.098922 0.171711,0.042086 0.463854,0.1722342 0.696058,0.3100905 0.233475,0.1386105 0.493209,0.3276754 0.650395,0.4734343 0.120475,0.1117161 0.22244,0.2090308 0.22244,0.2122955 0,0.00399 -0.05533,0.056066 -0.443817,0.4177348 -0.137757,0.1282466 -0.252158,0.2331757 -0.254224,0.2331757 -0.0021,0 -0.05343,-0.047484 -0.114135,-0.1055189 z"
       id="path370"
       transform="translate(342.5,521.36218)" />
    <path
       style="fill:#2aff80;stroke-width:0.00390625"
       d="M 4.0183984e-5,5.5029297 C 1.0703633e-4,5.2088648 0.01019809,5.0537397 0.04313566,4.8404425 0.12523857,4.3087602 0.33789459,3.7948941 0.65605391,3.359375 0.94846875,2.9590968 1.3275063,2.6272891 1.7636719,2.3897714 2.1135033,2.1992678 2.5121349,2.071067 2.9143916,2.0196975 3.0919369,1.9970243 3.2061134,1.992238 3.5703125,1.992201 l 0.2949219,-2.99e-5 -0.00129,0.024977 -0.00129,0.024977 -0.082693,0.00229 c -0.045481,0.00126 -0.159158,0.00325 -0.252615,0.00442 -0.5005495,0.00627 -0.8033615,0.021674 -0.9296875,0.0473 -0.033837,0.00686 -0.1287586,0.031872 -0.1855469,0.048884 C 2.0404183,2.25637 1.6867357,2.43486 1.3780519,2.6668716 1.2407549,2.7700662 1.1523216,2.8472463 1.0212238,2.9782931 0.8926266,3.1068404 0.80762145,3.2045954 0.70513066,3.3417969 0.37996604,3.7770854 0.16094196,4.2925604 0.07027396,4.8359375 0.05189831,4.9460635 0.04314865,5.0199318 0.03907024,5.0993722 c -0.0047227,0.091989 -0.01171205,0.3695799 -0.01175933,0.467034 -1.929e-5,0.039746 -0.0011435,0.081494 -0.0024983,0.092773 -0.0023286,0.019386 -0.0030744,0.020508 -0.01363793,0.020508 H 0 Z"
       id="path409"
       transform="translate(342.5,521.36218)" />
    <path
       style="fill:#2aff80;stroke-width:0.00390625"
       d="m 2.2433665,3.2631439 c 0.0052,-0.0052 0.1785119,-0.096337 0.2191837,-0.1152592 0.07383,-0.034349 0.2042061,-0.071898 0.2757311,-0.079411 0.01703,-0.00179 0.01136,6.171e-4 -0.027344,0.011604 -0.1337424,0.037965 -0.2639647,0.087483 -0.3862645,0.1468781 -0.076179,0.036997 -0.086876,0.041758 -0.081307,0.036189 z"
       id="path448"
       transform="translate(342.5,521.36218)" />
    <path
       style="fill:#2aff80;stroke-width:0.00390625"
       d="M 0.99667903,5.0349802 0.99609375,4.8844134 1.0561732,4.7185739 c 0.066913,-0.1847012 0.080779,-0.2203853 0.1174461,-0.302239 0.2122982,-0.4739217 0.5570206,-0.8622801 0.981707,-1.1059745 0.032793,-0.018817 0.060476,-0.03336 0.061519,-0.032318 0.00104,0.00104 -0.023151,0.016487 -0.053764,0.034322 C 1.8312504,3.5056831 1.5492866,3.7824467 1.3431361,4.1171875 1.1623289,4.4107766 1.0419135,4.7632645 1.006191,5.1035156 c -0.00338,0.032227 -0.006776,0.063867 -0.007539,0.070312 -7.6314e-4,0.00645 -0.001651,-0.056036 -0.001973,-0.1388474 z"
       id="path487"
       transform="translate(342.5,521.36218)" />
    <path
       style="fill:#2aff80;stroke-width:0.00390625"
       d="M 0,6.6660156 V 5.6796875 H 0.01232308 0.02464617 L 0.02200436,5.8935547 C 0.01867016,6.1634748 0.01284193,6.8099574 0.00944986,7.2861328 0.00799034,7.4910175 0.00533427,7.6523437 0.00342056,7.6523437 0.00147301,7.6523437 0,7.2275973 0,6.6660156 Z"
       id="path526"
       transform="translate(342.5,521.36218)" />
    <path
       style="fill:#2aff80;stroke-width:0.00390625"
       d=""
       id="path602"
       transform="translate(342.5,521.36218)" />
    <path
       style="fill:#2aff80;stroke-width:0.00390625"
       d=""
       id="path937"
       transform="translate(342.5,521.36218)" />
    <path
       style="fill:#2aff80;stroke-width:0.00390625"
       d=""
       id="path976"
       transform="translate(342.5,521.36218)" />
    <path
       style="fill:#2aff80;stroke-width:0.00390625"
       d="M 3.03125,20.989592 C 2.726309,20.959597 2.4803652,20.889889 2.2265625,20.761522 2.0322743,20.663256 1.8778278,20.550087 1.7126633,20.384969 1.5744504,20.246795 1.4741119,20.118504 1.3757733,19.95423 c -0.033152,-0.05538 -0.075913,-0.134298 -0.073874,-0.136338 9.316e-4,-9.31e-4 0.012871,0.01725 0.026532,0.0404 0.1394337,0.236316 0.3362013,0.462018 0.5563546,0.638168 0.3276146,0.262132 0.7126306,0.42705 1.1344677,0.48594 0.053913,0.0075 0.061471,0.01206 0.011996,0.0072 z"
       id="path1422"
       transform="translate(342.5,521.36218)" />
    <path
       style="fill:#2aff80;stroke-width:0.00390625"
       d="M 2.9023438,20.97236 C 2.8754883,20.968297 2.8253906,20.959571 2.7910156,20.95297 2.4390696,20.885386 2.0970451,20.72326 1.8441132,20.504121 1.6805486,20.36241 1.5395556,20.203418 1.4319243,20.039312 c -0.039136,-0.05967 -0.078122,-0.124885 -0.075954,-0.127054 8.754e-4,-8.75e-4 0.016409,0.02071 0.034519,0.04796 0.1505941,0.226619 0.3574002,0.442104 0.578105,0.602368 0.2795659,0.203005 0.6113605,0.344875 0.9454682,0.404269 0.07155,0.01272 0.071436,0.01269 0.052734,0.0128 -0.00859,5.1e-5 -0.037598,-0.0032 -0.064453,-0.0073 z"
       id="path1461"
       transform="translate(342.5,521.36218)" />
    <path
       style="fill:#2aff80;stroke-width:0.00390625"
       d="M 1.4932841,20.14581 C 1.4007452,20.022802 1.3239979,19.898209 1.2518777,19.753906 1.1840829,19.618258 1.1546858,19.546827 1.0600572,19.28781 l -0.0639634,-0.17508 6.8245e-4,-0.149138 c 3.7535e-4,-0.08203 0.001313,-0.141229 0.002084,-0.131561 0.003595,0.04509 0.0180155,0.15288 0.0286072,0.21382 0.035853,0.206285 0.097867,0.403831 0.1897751,0.60454 0.096502,0.21074 0.1795935,0.356383 0.2815759,0.49355 0.018128,0.02438 0.032119,0.04517 0.031092,0.0462 -0.00103,10e-4 -0.01751,-0.01892 -0.036626,-0.04433 z"
       id="path1500"
       transform="translate(342.5,521.36218)" />
    <path
       style="fill:#2aff80;stroke-width:0.00390625"
       d="m 16.882812,20.993746 c 0.284021,-0.02662 0.560006,-0.104928 0.812323,-0.230494 0.104904,-0.05221 0.17312,-0.09176 0.267195,-0.154946 0.325992,-0.218942 0.591179,-0.516308 0.776083,-0.870256 0.0394,-0.07541 0.04154,-0.07315 0.009,0.0095 -0.226115,0.573777 -0.611276,0.964023 -1.125938,1.1408 -0.145938,0.05013 -0.287821,0.08092 -0.451376,0.09798 -0.06644,0.0069 -0.217629,0.01371 -0.293132,0.01314 l -0.05078,-3.78e-4 0.05664,-0.0053 z"
       id="path2205"
       transform="translate(342.5,521.36218)" />
    <path
       style="fill:#2aff80;stroke-width:0.00390625"
       d=""
       id="path2244"
       transform="translate(342.5,521.36218)" />
    <path
       style="fill:#2aff80;stroke-width:0.00390625"
       d="m 11.246094,21.014202 v -0.0103 l 2.721679,-2.56e-4 c 2.613034,-2.46e-4 3.084279,-0.0019 3.178711,-0.01141 0.295892,-0.02967 0.554383,-0.108726 0.77879,-0.238171 0.02658,-0.01533 0.0491,-0.0271 0.05005,-0.02615 0.0041,0.0041 -0.127678,0.07788 -0.201884,0.113001 -0.07186,0.03401 -0.12355,0.0552 -0.283068,0.116054 l -0.143574,0.05477 -1.822812,0.0037 c -1.002546,0.002 -2.375204,0.0049 -3.05035,0.0064 l -1.227539,0.0027 z"
       id="path2283"
       transform="translate(342.5,521.36218)" />
    <path
       style="fill:#2aff80;stroke-width:0.00390625"
       d="m 17.255859,21.95097 c 0.0021,-8.46e-4 0.06631,-0.01926 0.142578,-0.04093 0.15013,-0.04264 0.259205,-0.07742 0.357422,-0.113966 0.351691,-0.13085 0.671948,-0.311258 0.959788,-0.540673 0.437681,-0.34884 0.782537,-0.805089 1.011121,-1.337727 0.07671,-0.178734 0.150135,-0.397089 0.169359,-0.503613 0.03375,-0.187037 0.04913,-0.724788 0.05565,-1.946289 l 0.0026,-0.495117 H 19.977208 20 l -3.9e-5,0.850586 c -3.5e-5,0.842815 -0.0013,0.946449 -0.01373,1.092774 -0.03611,0.426417 -0.148333,0.832646 -0.335894,1.215922 -0.364922,0.745714 -0.986964,1.327365 -1.749945,1.636317 -0.17517,0.07093 -0.391832,0.135972 -0.575718,0.172826 -0.0529,0.0106 -0.08081,0.01461 -0.06881,0.0099 z"
       id="path2322"
       transform="translate(342.5,521.36218)" />
    <path
       style="fill:#2aff80;stroke-width:0.00390625"
       d="m 11.246094,22.000708 c 0,-0.007 0.05971,-0.0073 2.057291,-0.0098 2.115209,-0.0027 3.703046,-0.0028 3.692709,-2.65e-4 -0.0032,7.87e-4 -0.04014,0.0045 -0.08203,0.0082 -0.07121,0.0063 -0.258328,0.0068 -2.87207,0.0079 -2.717387,0.0011 -2.795898,9.73e-4 -2.795898,-0.006 z"
       id="path2361"
       transform="translate(342.5,521.36218)" />
    <path
       style="fill:#2aff80;stroke-width:0.00390625"
       d="M 3.1824415,22.003706 C 2.5160091,21.972386 1.8762679,21.741889 1.3481933,21.342833 0.57806949,20.760864 0.09823059,19.888882 0.0138256,18.917969 0.00356874,18.799984 8.1675e-5,18.681165 4.0183984e-5,18.448242 L 0,18.222656 h 0.01126881 0.01126881 l 0.0024999,0.124024 c 0.01062965,0.527353 0.01295218,0.586061 0.0277008,0.700209 0.10002528,0.774154 0.41309056,1.404526 0.97655858,1.966348 0.4445498,0.44325 0.9507234,0.73668 1.5136588,0.877469 0.1412809,0.03533 0.3278204,0.06674 0.4397043,0.07403 0.2598229,0.01693 2.4334681,0.02737 5.9333556,0.02849 1.3255864,4.23e-4 2.3921384,0.0013 2.3701174,0.002 -0.03943,0.0012 -0.05402,0.0068 -0.02539,0.0098 0.02767,0.0029 -8.0166014,0.0016 -8.0783005,-0.0013 z"
       id="path2400"
       transform="translate(342.5,521.36218)" />
    <path
       style="fill:#2aff80;stroke-width:0.00390625"
       d="m 4.9355469,21.023182 c -0.6287085,-0.0028 -1.3268942,-0.0096 -1.5585938,-0.01514 -0.064453,-0.0016 1.6797364,-0.0031 3.8759766,-0.0035 l 3.9931643,-6.53e-4 v 0.0091 0.0091 l -0.633461,0.0026 c -0.8013389,0.0033 -4.8267209,0.0022 -5.6770861,-0.0016 z"
       id="path2439"
       transform="translate(342.5,521.36218)" />
    <path
       style="fill:#2aff80;stroke-width:0.00390625"
       d="m 19.007812,14.541016 v -2.685547 h 0.02 0.02 l -0.0025,1.663086 c -0.0027,1.808637 -0.0087,3.563896 -0.0125,3.652343 l -0.0024,0.05566 h -0.01131 -0.01131 z"
       id="path2478"
       transform="translate(342.5,521.36218)" />
    <path
       style="fill:#2aff80;stroke-width:0.00390625"
       d="m 19.955911,16.930672 c 7.87e-4,-0.03975 0.0058,-1.80188 0.01144,-4.054695 l 0.0026,-1.020508 H 19.984961 20 v 2.558594 2.558593 h -0.02246 -0.02246 l 8.33e-4,-0.042 z"
       id="path2517"
       transform="translate(342.5,521.36218)" />
    <path
       style="fill:#2aff80;stroke-width:0.00552427"
       d="m 19.04486,10.018267 c 0,-0.4891745 6.52e-4,-0.6884738 0.0014,-0.4428877 7.96e-4,0.2455862 7.96e-4,0.6458197 0,0.8894077 -7.96e-4,0.243588 -0.0014,0.04265 -0.0014,-0.44652 z"
       id="path2556"
       transform="translate(342.5,521.36218)" />
    <path
       style="fill:#2aff80;stroke-width:0.00390625"
       d="m 19.007812,12.464844 v -0.609375 h 0.01949 0.01949 l 0.0011,0.168945 c 5.83e-4,0.09292 0.0015,-0.720736 0.002,-1.808125 l 9.34e-4,-1.9770696 0.269741,-0.2680472 0.269741,-0.2680472 0.192173,-3e-7 0.192173,-2e-7 -9.7e-4,0.4052737 c -0.0047,1.9494728 -0.0089,4.0709718 -0.0088,4.4746098 l 3.3e-5,0.491211 h -0.45903 -0.458957 l -0.001,-0.262696 -10e-4,-0.262695 -9.49e-4,0.262695 -9.48e-4,0.262696 h -0.01758 -0.01758 z m 0.04197,-0.231446 c -7.09e-4,-0.01987 -0.0013,-0.0036 -0.0013,0.03613 0,0.03975 5.8e-4,0.05601 0.0013,0.03613 7.09e-4,-0.01987 7.09e-4,-0.05239 0,-0.07227 z"
       id="path2634"
       transform="translate(342.5,521.36218)" />
    <path
       style="fill:#2aff80;stroke-width:0.00390625"
       d="m 19.007952,10.057617 1.4e-4,-1.7978514 0.276227,-0.2784927 c 0.245178,-0.247188 0.277544,-0.2784733 0.287936,-0.2783203 0.01059,1.559e-4 -0.01404,0.02592 -0.257456,0.2693578 l -0.269164,0.2691854 5.7e-5,1.8069862 5.8e-5,1.806987 h -0.01897 -0.01897 z"
       id="path2673"
       transform="translate(342.5,521.36218)" />
    <path
       style="fill:#2aff80;stroke-width:0.00390625"
       d="m 19.970102,11.31543 c 0.0014,-0.297022 0.0037,-1.231299 0.0051,-2.0761722 L 19.97776,7.703125 H 19.98888 20 v 2.0761719 2.0761721 h -0.01622 -0.01622 z"
       id="path2712"
       transform="translate(342.5,521.36218)" />
    <path
       style="fill:#2aff80;stroke-width:0.00390625"
       d="m 20.001912,7.9785156 c 0,-0.3974609 4.58e-4,-0.5594796 10e-4,-0.3600415 5.6e-4,0.1994382 5.6e-4,0.5246335 0,0.7226563 -5.59e-4,0.1980228 -10e-4,0.034846 -10e-4,-0.3626148 z"
       id="path2751"
       transform="translate(342.5,521.36218)" />
    <path
       style="fill:#2aff80;stroke-width:0.00390625"
       d="m 19.574219,7.70828 c 0,-0.00252 -0.0028,-0.00515 -0.0063,-0.00585 -0.0041,-8.209e-4 0.07037,-0.078502 0.212691,-0.2219661 l 0.218943,-0.2207031 2e-4,0.2216797 2e-4,0.2216797 -0.01074,9e-7 -0.01074,9e-7 10e-4,-0.1953134 C 19.98014,7.400391 19.979267,7.3125 19.977624,7.3125 c -0.0016,0 -0.09308,0.090082 -0.203196,0.2001811 -0.110115,0.1100996 -0.200209,0.1981191 -0.200209,0.1955989 z"
       id="path2790"
       transform="translate(342.5,521.36218)" />
  </g>
</svg>
