<?xml version="1.0" encoding="UTF-8" standalone="no"?>
<svg
   width="46"
   height="22"
   version="1.1"
   id="svg106"
   sodipodi:docname="toggle-onMOD.svg"
   inkscape:version="1.1 (c4e8f9ed74, 2021-05-24)"
   xmlns:inkscape="http://www.inkscape.org/namespaces/inkscape"
   xmlns:sodipodi="http://sodipodi.sourceforge.net/DTD/sodipodi-0.dtd"
   xmlns="http://www.w3.org/2000/svg"
   xmlns:svg="http://www.w3.org/2000/svg">
  <defs
     id="defs110" />
  <sodipodi:namedview
     id="namedview108"
     pagecolor="#505050"
     bordercolor="#eeeeee"
     borderopacity="1"
     inkscape:pageshadow="0"
     inkscape:pageopacity="0"
     inkscape:pagecheckerboard="0"
     showgrid="false"
     inkscape:zoom="22.627417"
     inkscape:cx="39.399106"
     inkscape:cy="12.28598"
     inkscape:window-width="2560"
     inkscape:window-height="1044"
     inkscape:window-x="0"
     inkscape:window-y="0"
     inkscape:window-maximized="1"
     inkscape:current-layer="svg106" />
  <g
     transform="translate(0 -291.18)"
     stroke="#2b73cc"
     id="g104">
    <rect
       style="marker:none;font-variant-east_asian:normal"
       width="44.446"
       height="20.911"
       x=".625"
       y="291.715"
       rx="10.455"
       ry="10.073"
       fill="#3081e3"
       id="rect100" />
    <rect
       ry="10.455"
       rx="10.455"
       y="291.715"
       x="24.304"
       height="20.911"
       width="21.143"
       style="marker:none;font-variant-east_asian:normal"
       fill="#f8f7f7"
       stroke-linecap="round"
       stroke-linejoin="round"
       id="rect102" />
  </g>
  <path
     style="fill:#55ff99;stroke-width:0.0424746"
     d="M 10.210207,20.893726 C 8.8833658,20.775253 7.7528778,20.460556 6.5623269,19.878257 3.708398,18.482398 1.7868843,15.932188 1.2496479,12.827331 1.1570464,12.292158 1.1178904,10.375224 1.1860753,9.7150454 1.5275295,6.4090288 3.5188827,3.588694 6.5623269,2.1007111 7.4861496,1.649041 8.2520704,1.399706 9.3868883,1.1812137 L 9.8753463,1.0871683 19.963066,1.0746792 30.050785,1.06219 29.604801,1.3002362 c -0.54289,0.289771 -1.256154,0.759674 -1.741458,1.1472856 -0.444284,0.3548481 -1.250657,1.1562993 -1.608434,1.5986155 -0.697256,0.8620142 -1.432314,2.1568021 -1.810805,3.1896971 -0.81229,2.2167183 -0.864138,4.8084496 -0.141421,7.0691046 0.539153,1.686463 1.362195,3.05672 2.604399,4.335981 0.812845,0.837095 1.716652,1.516801 2.740194,2.060757 l 0.445983,0.237016 -9.747922,-0.0052 c -5.361357,-0.0029 -9.922166,-0.02076 -10.13513,-0.03977 z"
     id="path319" />
  <path
     style="fill:#00d455;stroke-width:0.0424746"
     d="M 9.8116343,21.853739 C 8.4464406,21.68635 7.2390765,21.330102 6.0738689,20.750865 4.2340824,19.836289 2.6723188,18.409674 1.6387305,16.699524 0.53865019,14.879358 0.05625698,12.874196 0.14532011,10.491869 0.18106534,9.5357299 0.26145334,8.9199309 0.45036487,8.1551247 1.4322625,4.1799229 4.684578,1.1261157 8.8347184,0.28251829 9.9607669,0.05362688 9.3068946,0.06371191 23.021237,0.06371191 c 10.243176,0 12.851688,0.01094818 13.209603,0.05544196 2.659003,0.33055113 5.168021,1.61852333 6.864232,3.52366393 1.447871,1.6262129 2.334893,3.475201 2.694505,5.6166467 0.11525,0.6863076 0.157827,2.0699065 0.08565,2.7834525 -0.33603,3.322162 -2.092775,6.23143 -4.88668,8.092624 -1.041165,0.693585 -2.505482,1.30701 -3.695846,1.548249 -1.085535,0.219994 -0.07642,0.204564 -14.059095,0.214973 -10.369841,0.0077 -13.065565,-0.0013 -13.4219757,-0.04502 z M 35.675233,20.937713 c 3.583236,-0.256865 6.674038,-2.318466 8.243027,-5.498193 0.344533,-0.698239 0.550216,-1.241927 0.71921,-1.901128 0.877292,-3.422034 -0.03291,-6.9420442 -2.446319,-9.4606313 -1.524625,-1.59107 -3.438471,-2.5800075 -5.7267,-2.9591465 -0.667114,-0.1105348 -2.515463,-0.1108209 -3.185596,-4.931e-4 -3.349998,0.5515285 -6.029788,2.5170799 -7.478013,5.4849143 -0.690152,1.4143233 -0.99779,2.7645167 -0.998677,4.3830906 -8.92e-4,1.628387 0.306956,2.982221 1.002997,4.410919 0.882657,1.81175 2.320234,3.321831 4.118199,4.325901 1.694792,0.946454 3.671408,1.363906 5.751872,1.214767 z m -5.921067,-0.21703 c -1.014452,-0.519837 -1.85253,-1.138422 -2.720508,-2.008007 -1.754596,-1.757844 -2.711173,-3.680874 -3.128279,-6.288853 -0.08705,-0.544287 -0.07249,-2.387974 0.02382,-3.0156974 0.242787,-1.5824527 0.833322,-3.1141142 1.72466,-4.4732261 0.43765,-0.6673253 0.775687,-1.0806311 1.365844,-1.6699682 C 27.892728,2.3931192 28.7362,1.7798918 29.838412,1.2156522 L 30.220683,1.0199613 20.048015,1.031393 9.8753463,1.0428247 9.4081256,1.1400874 C 8.100741,1.4122495 7.3130197,1.6748745 6.3924284,2.145516 3.8979313,3.4207982 2.0839513,5.6576041 1.4032464,8.2976414 c -0.235855,0.914737 -0.2771455,1.322311 -0.2760151,2.7245196 9.115e-4,1.130809 0.011762,1.334388 0.096399,1.808619 0.3585903,2.009225 1.1810223,3.642971 2.5446552,5.05491 1.5987208,1.655356 3.6251473,2.667892 5.9796367,2.987823 0.3472718,0.04719 2.2492628,0.05833 10.4275168,0.06109 l 10.00277,0.0034 -0.424043,-0.217292 z"
     id="path545" />
  <path
     style="fill:#00d455;stroke-width:0.00390625"
     d="m 29.253906,1.5022446 c 0,-0.00228 0.137762,-0.082125 0.230665,-0.1336874 0.042,-0.023312 0.186582,-0.1012486 0.321289,-0.1731926 0.134706,-0.071944 0.244921,-0.1317779 0.244921,-0.1329643 0,-0.00119 -0.19292,-0.00165 -0.428711,-0.00104 -0.235791,6.153e-4 -2.901074,0.00376 -5.922851,0.00699 -3.021778,0.00323 -5.745069,0.0064 -6.051758,0.00706 l -0.557617,0.00119 v -0.020722 -0.020722 h 6.536121 6.536121 l -0.09432,0.044522 c -0.237813,0.1122489 -0.514049,0.2558323 -0.738308,0.3837615 -0.06761,0.038566 -0.07555,0.042645 -0.07555,0.038805 z"
     id="path584" />
  <path
     style="fill:#00d455;stroke-width:0.00390625"
     d="m 29.700107,1.2556219 c 0.0012,-0.0012 0.07508,-0.041387 0.164157,-0.089294 0.184379,-0.099157 0.186517,-0.1003618 0.186517,-0.1051081 0,-0.00206 -0.554878,-0.00247 -1.350586,-9.874e-4 -0.742822,0.00138 -2.915918,0.00417 -4.829101,0.00619 -1.913184,0.00202 -4.221631,0.00483 -5.129883,0.00624 l -1.651367,0.00257 v -0.020038 -0.020038 l 6.532226,2.644e-4 6.532227,2.643e-4 -0.0625,0.029853 c -0.03438,0.016419 -0.13592,0.066398 -0.225656,0.1110639 -0.150081,0.074702 -0.172282,0.085268 -0.166034,0.07902 z"
     id="path623" />
  <path
     style="fill:#00d455;stroke-width:0.00390625"
     d="m 25.480469,5.2130898 c 0,-0.00353 0.115237,-0.1849507 0.184397,-0.2902949 0.352841,-0.5374527 0.641065,-0.9065219 1.03628,-1.326951 0.679427,-0.7227734 1.353793,-1.2969399 2.070338,-1.762721 0.383873,-0.2495317 0.669743,-0.4117081 1.24307,-0.705204 l 0.207914,-0.1064345 -0.434476,-0.00121 c -0.238962,-6.636e-4 -2.017387,6.571e-4 -3.952055,0.00293 -1.934667,0.00228 -4.693994,0.00531 -6.131835,0.00673 l -2.614258,0.00259 V 0.54947148 0.06640625 l 5.743164,5e-7 c 3.15874,2.7e-7 6.509131,0.0011715 7.445312,0.0026027 l 1.702149,0.0026022 V 0.74071852 1.4098254 l -0.02832,0.00827 C 31.277862,1.6149208 30.58629,1.8979169 29.976563,2.22652 c -1.045043,0.5632104 -1.963,1.2969535 -2.734636,2.185856 -0.199878,0.2302539 -0.408877,0.4958 -0.58177,0.7391738 l -0.04492,0.063235 -0.567382,3.91e-5 c -0.312061,0 -0.567383,-7.582e-4 -0.567383,-0.00172 z"
     id="path662" />
  <path
     style="fill:#00d455;stroke-width:0.00390625"
     d="m 25.477102,5.1630859 c 0.288423,-0.4702587 0.641381,-0.9469952 1.028845,-1.3896484 0.651201,-0.7439563 1.384396,-1.3842273 2.21085,-1.9306502 0.438916,-0.2901968 0.934611,-0.5677397 1.397582,-0.7825169 l 0.04993,-0.023161 -5.055784,-0.00196 c -2.780682,-0.00108 -4.580297,-0.00238 -3.999145,-0.00289 0.581152,-5.16e-4 2.643945,-0.00281 4.583984,-0.00509 1.940039,-0.00229 3.749033,-0.00362 4.019986,-0.00297 l 0.492641,0.00119 -0.172115,0.087891 c -0.24407,0.1246342 -0.378633,0.194971 -0.506527,0.2647652 -0.804071,0.4387947 -1.474562,0.917897 -2.132813,1.52401 -0.243042,0.2237913 -0.59361,0.5760683 -0.818563,0.822553 -0.262614,0.2877498 -0.4932,0.5794278 -0.742685,0.9394531 -0.09133,0.1317997 -0.2515,0.3760785 -0.325775,0.4968547 -0.03268,0.053137 -0.033,0.053497 -0.04753,0.053711 l -0.01463,2.149e-4 0.03174,-0.051758 z"
     id="path701" />
  <path
     style="fill:#00d455;stroke-width:0.00390625"
     d="m 23.466104,1.0322281 c 0.07052,-5.971e-4 0.184775,-5.967e-4 0.253906,8e-7 0.06913,5.975e-4 0.01144,0.00109 -0.128213,0.00109 -0.139649,-4e-7 -0.19621,-4.893e-4 -0.125693,-0.00109 z"
     id="path740" />
  <path
     style="fill:#00d455;stroke-width:0.00390625"
     d="m 25.480469,5.2127285 c 0,-0.00624 0.197102,-0.3122773 0.276636,-0.4295254 0.398467,-0.5874082 0.703427,-0.9541543 1.240942,-1.4923622 0.177541,-0.1777704 0.265406,-0.2623723 0.416132,-0.4006791 0.534264,-0.4902412 1.075762,-0.8960565 1.6817,-1.2603163 0.279205,-0.1678446 0.496029,-0.2862614 0.931465,-0.508713 0.102051,-0.052135 0.187304,-0.096532 0.189453,-0.098661 0.004,-0.00392 -2.047577,-0.00265 -8.007813,0.00498 -1.549023,0.00198 -3.334521,0.00365 -3.967773,0.0037 L 17.089844,1.03125 V 0.54882812 0.06640625 l 5.743164,5e-7 c 3.15874,2.7e-7 6.509131,0.0011715 7.445312,0.0026027 l 1.702149,0.0026022 V 0.74071852 1.4098254 l -0.02832,0.00839 C 30.657883,1.8016087 29.505613,2.3975724 28.498048,3.204705 27.80352,3.7610722 27.173142,4.4288594 26.660204,5.1516129 l -0.04488,0.063232 h -0.567429 c -0.312086,0 -0.567429,-9.519e-4 -0.567429,-0.00212 z"
     id="path779" />
  <path
     style="fill:#00d455;stroke-width:0.00390625"
     d="m 25.454243,5.2058473 c 0.0011,-0.0028 0.01826,-0.031365 0.03818,-0.063477 0.306091,-0.4932667 0.672155,-0.9822088 1.071694,-1.4314332 0.262186,-0.2947902 0.573583,-0.608223 0.863751,-0.8694001 0.63113,-0.5680717 1.337976,-1.0674079 2.093612,-1.4789859 0.212616,-0.1158073 0.358848,-0.1896881 0.607422,-0.306889 0.02041,-0.00962 0.0352,-0.018224 0.03287,-0.019114 -0.0052,-0.00197 -0.153069,0.068346 -0.329191,0.1564943 -0.07167,0.03587 -0.131046,0.064482 -0.131947,0.063581 -9.01e-4,-9.006e-4 0.07444,-0.042552 0.167419,-0.092558 0.183873,-0.098889 0.185137,-0.099616 0.179406,-0.1031581 -0.0021,-0.00132 -1.39314,-6.259e-4 -3.091107,0.00155 -4.473772,0.00574 -9.434524,0.011775 -9.666314,0.011766 l -0.200195,-7.2e-6 v -0.019341 -0.019342 l 4.096679,-0.00214 c 2.253174,-0.00118 5.202344,-0.00305 6.553711,-0.00417 l 2.457032,-0.00203 -0.1875,0.096081 c -0.239353,0.122652 -0.348727,0.1799797 -0.482422,0.2528574 -0.779421,0.4248645 -1.438221,0.8916791 -2.076046,1.4710514 -0.224544,0.2039652 -0.553544,0.529886 -0.789245,0.781857 -0.425583,0.4549615 -0.74154,0.8737788 -1.16677,1.5466174 -0.01892,0.029945 -0.02386,0.035277 -0.03264,0.035277 -0.0069,0 -0.0097,-0.0017 -0.0084,-0.00509 z"
     id="path818" />
  <path
     style="fill:#00d455;stroke-width:0.00390625"
     d="m 25.454475,5.2052414 c 0.01079,-0.028114 0.240443,-0.3797878 0.348306,-0.5333664 0.608163,-0.8659223 1.366662,-1.6626913 2.206985,-2.3183391 0.631014,-0.4923385 1.345574,-0.9334723 2.046875,-1.2636391 0.09424,-0.044367 0.123893,-0.060019 0.09998,-0.052769 -0.0144,0.00436 -0.19505,0.091376 -0.331846,0.1598338 -0.06737,0.033716 -0.123238,0.06056 -0.124144,0.059654 -9.06e-4,-9.06e-4 0.07189,-0.041253 0.161767,-0.089659 0.08988,-0.048406 0.16913,-0.091488 0.176118,-0.095737 l 0.0127,-0.00773 -0.01096,-0.00221 c -0.0103,-0.00208 -1.636237,-4.837e-4 -9.165255,0.009 -1.715527,0.00216 -3.268994,0.00393 -3.452148,0.00393 l -0.333008,2.9e-6 v -0.019531 -0.019531 l 3.217773,-9.765e-4 c 1.769776,-5.371e-4 3.289844,-0.00101 3.37793,-0.00106 0.08809,-4.43e-5 1.589258,-0.0015 3.335937,-0.00323 l 3.175782,-0.00315 -0.179688,0.092394 c -0.09883,0.050817 -0.223633,0.1153761 -0.277344,0.143465 -0.868998,0.4544545 -1.573378,0.9399988 -2.253906,1.5536663 -0.287515,0.2592673 -0.703356,0.675133 -0.955169,0.9552248 -0.325734,0.3623147 -0.639725,0.782452 -0.95694,1.2804394 -0.03115,0.048906 -0.0667,0.1046899 -0.07898,0.123966 -0.01888,0.029617 -0.02394,0.035048 -0.03265,0.035048 -0.0074,0 -0.0097,-0.00159 -0.0081,-0.0057 z"
     id="path857" />
  <path
     style="fill:#00d455;stroke-width:0.00390625"
     d="m 25.454256,5.2058117 c 0.003,-0.00777 0.07443,-0.1230312 0.123945,-0.1999523 0.720985,-1.1200074 1.698528,-2.1420717 2.800705,-2.9282597 0.523236,-0.3732265 1.092292,-0.7095246 1.647907,-0.9738713 0.130143,-0.061919 0.137589,-0.065628 0.135644,-0.067574 -0.0025,-0.00253 -0.137001,0.06137 -0.312388,0.148452 -0.08139,0.04041 -0.148706,0.072745 -0.149596,0.071856 -8.89e-4,-8.896e-4 0.07273,-0.041644 0.163603,-0.090564 0.09087,-0.048921 0.169561,-0.091759 0.174865,-0.095196 0.0095,-0.00618 0.0094,-0.00628 -0.01367,-0.00865 -0.02048,-0.00211 -4.355363,0.00205 -10.854371,0.010414 l -2.081054,0.00268 v -0.019513 -0.019513 l 3.768554,-0.00244 c 2.072706,-0.00134 5.021875,-0.00341 6.553711,-0.00459 l 2.785157,-0.00216 -0.0957,0.049357 c -0.05264,0.027146 -0.158984,0.081998 -0.236328,0.1218935 -0.659304,0.3400804 -1.155833,0.6461603 -1.648437,1.0161608 -0.464504,0.3488938 -0.839758,0.6831233 -1.351606,1.203839 -0.528049,0.5371987 -0.878855,0.984754 -1.334783,1.7029074 -0.04971,0.078293 -0.05703,0.088031 -0.06708,0.089179 -0.0086,9.851e-4 -0.01076,-6.25e-5 -0.0091,-0.00446 z"
     id="path896" />
  <path
     style="fill:#00d455;stroke-width:0.00390625"
     d="m 25.454784,5.2044129 c 0.0124,-0.032432 0.26987,-0.4239664 0.384865,-0.5852723 0.57809,-0.8109037 1.281403,-1.5549787 2.056835,-2.1760427 0.667137,-0.5343268 1.378078,-0.9802738 2.152276,-1.3500425 0.05797,-0.027687 0.107189,-0.052135 0.109375,-0.054329 0.0081,-0.00808 -0.182446,0.082744 -0.36251,0.1728362 -0.05134,0.025688 -0.09411,0.045944 -0.09504,0.045013 -9.3e-4,-9.303e-4 0.03837,-0.023278 0.08734,-0.049662 0.161385,-0.086958 0.253037,-0.137225 0.256803,-0.1408456 0.0043,-0.00418 0.09969,-0.00396 -1.544727,-0.00364 -1.167296,2.23e-4 -3.805788,0.00311 -9.329102,0.010223 l -2.081054,0.00268 V 1.0558172 1.036309 l 3.565429,-0.00253 c 1.960987,-0.00139 4.910157,-0.00352 6.553711,-0.00474 l 2.988282,-0.00221 -0.0918,0.047518 C 30.054977,1.100482 29.934524,1.162834 29.83779,1.212907 29.522255,1.3762464 29.327018,1.4848 29.068359,1.6407242 28.52456,1.968537 28.018663,2.3421333 27.535166,2.7729616 27.273743,3.0059075 26.864665,3.4100769 26.59766,3.6992188 c -0.358942,0.3887018 -0.68388,0.8206739 -1.053399,1.4003906 -0.06245,0.097969 -0.07089,0.1095093 -0.08096,0.1106629 -0.0095,0.00109 -0.01083,1.914e-4 -0.0085,-0.00586 z"
     id="path935" />
  <path
     style="fill:#00d455;stroke-width:0.00390625"
     d=""
     id="path974" />
  <path
     style="fill:#00d455;stroke-width:0.00390625"
     d="m 25.480469,5.2127512 c 0,-0.00788 0.213826,-0.3379973 0.313649,-0.4842356 0.374403,-0.5484937 0.685439,-0.9193656 1.2155,-1.4493352 0.28991,-0.2898599 0.528363,-0.5090433 0.800929,-0.736205 0.524251,-0.4369211 1.074139,-0.8092562 1.703125,-1.1532034 0.125864,-0.068826 0.236455,-0.1267136 0.485269,-0.2540084 0.118657,-0.060705 0.215776,-0.1119482 0.215821,-0.1138736 8.2e-5,-0.00342 -1.616135,-0.00227 -7.853434,0.00558 -1.579101,0.00199 -3.411182,0.00365 -4.071289,0.0037 l -1.200195,8e-5 V 0.54882812 0.06640625 h 5.745443 c 3.159995,0 6.510385,0.0011712 7.445313,0.0026027 l 1.699869,0.0026027 V 0.74075836 1.4099051 l -0.03418,0.010196 c -1.19045,0.3551313 -2.233975,0.873187 -3.183518,1.5804504 -0.800259,0.5960704 -1.51691,1.3286653 -2.096561,2.1432055 l -0.05059,0.071086 h -0.567577 c -0.312167,0 -0.567577,-9.417e-4 -0.567577,-0.00209 z"
     id="path1013" />
  <path
     style="fill:#00d455;stroke-width:0.00390625"
     d="m 26.639092,5.1884766 c 0.259421,-0.3660961 0.528165,-0.6969991 0.835155,-1.0283204 0.155034,-0.1673217 0.442294,-0.449038 0.621485,-0.6094901 0.817831,-0.7323103 1.7559,-1.3211884 2.789034,-1.750832 0.324103,-0.1347829 0.656263,-0.2535179 0.995938,-0.3560115 0.05363,-0.016181 0.09833,-0.028588 0.09935,-0.027572 0.0038,0.00379 -0.0063,0.00853 -0.03669,0.017197 -0.127823,0.036473 -0.366628,0.1133706 -0.515625,0.1660361 -0.991568,0.3504873 -1.910116,0.8491788 -2.74414,1.4898294 -0.764436,0.5871959 -1.445857,1.2904321 -2.013229,2.0776788 -0.02413,0.033476 -0.03681,0.047852 -0.04222,0.047852 -0.0066,0 -0.0051,-0.00377 0.01095,-0.026367 z"
     id="path1052" />
  <path
     style="fill:#00d455;stroke-width:0.00390625"
     d=""
     id="path1091" />
  <path
     style="fill:#00d455;stroke-width:0.00390625"
     d=""
     id="path1130" />
  <path
     style="fill:#00d455;stroke-width:0.00390625"
     d="m 26.628906,5.2092436 c 0,-0.00443 0.09832,-0.1404851 0.183777,-0.2543044 0.288683,-0.3845049 0.608589,-0.7509461 0.935976,-1.0721267 0.176385,-0.1730423 0.291123,-0.2804404 0.425129,-0.3979321 0.758967,-0.6654399 1.612133,-1.2046708 2.56204,-1.6192994 0.04269,-0.018636 0.07932,-0.033319 0.08139,-0.032629 0.0021,6.9e-4 -0.01616,0.00984 -0.04052,0.020325 -0.396788,0.1708884 -0.831615,0.3966129 -1.213748,0.6300725 -1.12601,0.6879214 -2.092178,1.5805149 -2.87631,2.6572756 -0.03826,0.052541 -0.05774,0.075686 -0.05774,0.068619 z"
     id="path1169" />
  <path
     style="fill:#00d455;stroke-width:0.00390625"
     d="m 26.628906,5.209074 c 0,-0.00675 0.151532,-0.2137869 0.251659,-0.3438396 0.21273,-0.2763076 0.441457,-0.5431033 0.67576,-0.7882314 0.147144,-0.1539419 0.413454,-0.4112621 0.566722,-0.5475907 0.668856,-0.5949337 1.438026,-1.1070421 2.246662,-1.4958133 0.188474,-0.090614 0.439667,-0.2032602 0.447461,-0.2006623 0.0021,7.046e-4 -0.0099,0.00727 -0.02678,0.014586 -0.576834,0.2506184 -1.123941,0.5512207 -1.633042,0.8972575 -0.468466,0.3184168 -0.92746,0.6910824 -1.315364,1.0679674 -0.03663,0.035586 -0.07071,0.068105 -0.07575,0.072266 -0.01652,0.013641 -0.243123,0.2481492 -0.317012,0.3280664 -0.26927,0.291236 -0.499465,0.5701449 -0.736193,0.8919859 -0.0631,0.085787 -0.08412,0.1117757 -0.08412,0.1040081 z"
     id="path1208" />
  <path
     style="fill:#00d455;stroke-width:0.00390625"
     d=""
     id="path1247" />
  <path
     style="fill:#00d455;stroke-width:0.00390625"
     d="m 26.628906,5.2090564 c 0,-0.00426 0.06237,-0.091493 0.143881,-0.2012439 0.375007,-0.504922 0.757335,-0.9300655 1.23701,-1.3755386 0.677539,-0.6292294 1.520579,-1.1984302 2.38864,-1.6127547 0.17855,-0.085222 0.411478,-0.1890006 0.418758,-0.186574 0.002,6.677e-4 -0.03559,0.018528 -0.08353,0.03969 -0.558473,0.2464857 -1.088927,0.5405312 -1.585224,0.8787341 -0.410193,0.2795276 -0.831292,0.6147226 -1.16595,0.9280968 -0.488086,0.457045 -0.887827,0.9066498 -1.278287,1.4377385 -0.05466,0.074344 -0.07529,0.099518 -0.07529,0.091852 z"
     id="path1286" />
  <path
     style="fill:#00d455;stroke-width:0.00390625"
     d="m 26.628906,5.2089187 c 0,-0.00453 0.08649,-0.1247062 0.17144,-0.2382156 0.352423,-0.4708839 0.725679,-0.8862558 1.168498,-1.3003425 0.715027,-0.6686325 1.56339,-1.2419679 2.474515,-1.6723118 0.172245,-0.081355 0.367155,-0.1673305 0.374099,-0.165016 0.002,6.812e-4 -0.03559,0.01859 -0.08363,0.039796 -0.871549,0.3847428 -1.669794,0.8826221 -2.401798,1.4980426 -0.207805,0.1747089 -0.366927,0.3206962 -0.583388,0.5352321 -0.3826,0.379198 -0.676876,0.718694 -1.009138,1.1642086 -0.09019,0.1209265 -0.110599,0.1465085 -0.110599,0.1386062 z"
     id="path1325" />
  <path
     style="fill:#00d455;stroke-width:0.00390625"
     d=""
     id="path1364" />
  <path
     style="fill:#00d455;stroke-width:0.00390625"
     d=""
     id="path1403" />
  <path
     style="fill:#00d455;stroke-width:0.00390625"
     d=""
     id="path1442" />
  <path
     style="fill:#00d455;stroke-width:0.00390625"
     d="m 27.541016,2.727844 c 0.08889,-0.082697 0.269536,-0.2363065 0.378906,-0.322203 0.128048,-0.1005658 0.348491,-0.2635297 0.351887,-0.2601344 0.0011,0.00106 -0.0144,0.013996 -0.03436,0.02875 -0.220555,0.1630709 -0.479614,0.3709539 -0.66981,0.5374922 -0.04674,0.040929 -0.06553,0.052283 -0.02663,0.016096 z"
     id="path1481" />
  <path
     style="fill:#00d455;stroke-width:0.00390625"
     d="m 27.787109,2.5170217 c 0.01476,-0.013136 0.128945,-0.1056198 0.16522,-0.1338224 0.0092,-0.00718 0.01766,-0.012173 0.01872,-0.011105 0.0011,0.00107 -0.01439,0.014859 -0.03436,0.030645 -0.01997,0.015786 -0.06389,0.051159 -0.09761,0.078606 -0.03372,0.027447 -0.06272,0.049831 -0.06445,0.049742 -0.0017,-8.94e-5 0.0039,-0.00642 0.01248,-0.014066 z"
     id="path1520" />
  <path
     style="fill:#00d455;stroke-width:0.00390625"
     d="m 25.480469,5.2126891 c 0,-0.00815 0.209315,-0.3314758 0.311765,-0.4815856 0.376809,-0.5521031 0.683574,-0.91806 1.215459,-1.4499884 0.189197,-0.1892125 0.318199,-0.3123942 0.478635,-0.4570385 0.60582,-0.5461892 1.23124,-0.9923673 1.953125,-1.393369 0.166816,-0.092665 0.268553,-0.1461865 0.650801,-0.3423721 0.06145,-0.031542 0.115069,-0.060023 0.11914,-0.063291 0.008,-0.00645 -0.939317,-0.00615 -7.723066,0.00243 -1.574805,0.00199 -3.433252,0.00366 -4.129883,0.0037 L 17.089844,1.03125 V 0.54882812 0.06640625 h 5.903647 c 3.247005,0 6.597401,0.0011711 7.445323,0.0026025 l 1.541677,0.0026025 -9.88e-4,0.6698398 -9.87e-4,0.66983975 -0.01953,0.00553 c -0.119908,0.03396 -0.388233,0.1207216 -0.546454,0.1766952 -1.780378,0.6298403 -3.288042,1.6975841 -4.440438,3.1447652 -0.106991,0.1343594 -0.253887,0.3302915 -0.338989,0.4521485 l -0.01705,0.024414 h -0.567793 c -0.312286,0 -0.567793,-9.695e-4 -0.567793,-0.00215 z"
     id="path1559" />
  <path
     style="fill:#00d455;stroke-width:0.00390625"
     d="m 25.480469,5.2124164 c 0,-0.00591 0.152447,-0.243898 0.24741,-0.3862445 0.335958,-0.5035895 0.624319,-0.8648219 1.031887,-1.2926527 0.648382,-0.6806179 1.255712,-1.1984545 1.933593,-1.6486682 0.374117,-0.248469 0.694743,-0.4352048 1.148438,-0.6688623 0.0666,-0.0343 0.177119,-0.091217 0.245595,-0.1264812 l 0.124502,-0.064117 -0.04052,-0.00317 c -0.02229,-0.00174 -1.698135,-0.00128 -3.724111,0.00102 -2.025977,0.0023 -4.960205,0.00534 -6.520508,0.00675 l -2.836914,0.00256 V 0.54947824 0.06640625 l 6.05957,6.1e-7 c 3.332764,3.4e-7 6.683159,0.0011714 7.445323,0.0026024 l 1.385754,0.0026017 -9.88e-4,0.66973216 -9.87e-4,0.66973218 -0.02539,0.00756 c -1.025046,0.3053765 -1.93186,0.7266868 -2.77516,1.2893524 -0.425884,0.2841579 -0.801495,0.5798962 -1.19359,0.9397756 -0.109171,0.1002016 -0.422718,0.4126804 -0.521978,0.5202011 -0.291612,0.3158805 -0.559426,0.6442286 -0.794133,0.9736329 l -0.05219,0.073242 h -0.567805 c -0.312292,0 -0.567804,-0.00109 -0.567804,-0.00243 z"
     id="path1598" />
  <path
     style="fill:#00d455;stroke-width:0.00390625"
     d="m 10.083984,1.083779 c 0.02849,-0.00609 0.371082,-0.030023 0.525391,-0.036696 0.05379,-0.00233 1.154188,-0.00462 2.835938,-0.00592 1.511425,-0.00116 2.949755,-0.00315 3.196289,-0.0044 l 0.448242,-0.00229 v 0.021255 0.021255 l -2.594727,0.00253 c -1.427099,0.00139 -3.005176,0.00329 -3.506836,0.00423 -0.50166,9.386e-4 -0.908593,9.545e-4 -0.904297,3.6e-5 z"
     id="path1637" />
  <path
     style="fill:#00d455;stroke-width:0.00390625"
     d="m 9.84375,0.11580659 v -0.0130997 l 0.045898,-0.0046669 c 0.254686,-0.02589608 0.474743,-0.04108342 0.809571,-0.05587294 0.07789,-0.0034403 1.828116,-0.00489 7.069336,-0.0058555 l 6.96582,-0.0012832 V 0.04876419 0.0625 l -4.69043,8.177e-5 c -6.215158,1.0835e-4 -7.91972,0.0052306 -9.084961,0.02730048 -0.43332,0.0082072 -0.846563,0.02221217 -1.0390621,0.03521433 -0.081182,0.005483 -0.076172,0.006094 -0.076172,-0.00929 z"
     id="path1676" />
  <path
     style="fill:#00d455;stroke-width:0.00552427"
     d="m 25.25697,5.5935533 c 0,-0.00352 0.163518,-0.2827958 0.198187,-0.3384929 0.01557,-0.025013 0.02831,-0.046739 0.02831,-0.048281 0,-0.00154 0.01071,-0.019608 0.02381,-0.040148 0.0291,-0.045652 0.03456,-0.055149 0.02858,-0.049718 -0.0025,0.00231 -0.01724,0.02344 -0.03265,0.046956 -0.01554,0.023708 -0.03269,0.043621 -0.0385,0.044697 -0.01497,0.00277 -0.01107,-0.00523 0.0507,-0.1041403 0.328206,-0.5255623 0.728275,-1.046287 1.194757,-1.5550825 0.13508,-0.1473327 0.48179,-0.4931771 0.629461,-0.627889 0.745471,-0.6800529 1.500766,-1.2070405 2.403058,-1.6766712 0.08356,-0.043489 0.150012,-0.079092 0.147682,-0.079117 -0.0023,-2.76e-5 -0.0318,0.013779 -0.06549,0.030676 -0.104849,0.052584 -0.07182,0.029188 0.05713,-0.040465 0.155919,-0.084223 0.158916,-0.085953 0.158958,-0.091804 5.5e-5,-0.00464 -3.222495,-0.00235 -7.88172,0.00561 l -2.045362,0.00349 v -0.02006 -0.020061 l 2.385105,-0.00139 2.385104,-0.00139 -2.385104,-0.00137 -2.385105,-0.00137 V 0.54630747 0.06510041 l 6.069794,0.0028856 c 6.677621,0.0031745 8.568495,0.0094299 9.527988,0.03152016 0.419474,0.0096575 0.508104,0.01657259 0.817592,0.06379002 1.506971,0.22991308 2.97187,0.76693643 4.256451,1.56038981 0.122952,0.075944 0.282938,0.1785581 0.346648,0.2223374 l 0.04005,0.027522 V 2.5589571 3.1443692 L 41.148086,3.125886 C 40.84831,2.8979739 40.741734,2.8210175 40.537865,2.6852592 40.184203,2.4497516 39.878343,2.2729183 39.487494,2.0779849 38.601819,1.6362598 37.678971,1.3352374 36.623159,1.1436711 36.398315,1.1028753 36.267368,1.0864639 36.0293,1.0692432 c -0.649477,-0.04698 -1.681054,-0.047034 -2.320194,-1.204e-4 -0.261689,0.019208 -0.388649,0.036158 -0.682247,0.091082 -0.352343,0.065913 -0.77865,0.1676288 -1.041326,0.2484565 -0.221391,0.068124 -0.298999,0.092834 -0.430893,0.1371927 -0.310544,0.1044432 -0.772707,0.2839138 -0.756659,0.2938319 0.0043,0.00263 0.0033,0.00503 -0.0029,0.00741 -0.01411,0.00541 -0.02324,0.00409 -0.01382,-0.00199 0.01148,-0.00742 0.0035,-0.00686 -0.01371,9.581e-4 -0.0078,0.00357 -0.0118,0.00798 -0.0088,0.00981 0.003,0.00183 -0.05477,0.030488 -0.128283,0.063685 -0.173754,0.078459 -0.490112,0.2364995 -0.661234,0.3303281 -0.893071,0.4896843 -1.710677,1.1158081 -2.399294,1.8373808 -0.311827,0.3267511 -0.528963,0.5828868 -0.803304,0.9475862 -0.07107,0.094474 -0.132169,0.1727973 -0.135781,0.1740509 -0.0049,0.0017 -0.005,3.072e-4 -3.92e-4,-0.00552 0.0034,-0.00429 0.02926,-0.040121 0.05748,-0.079619 0.166613,-0.233232 0.384128,-0.5070617 0.588012,-0.7402524 0.247593,-0.2831831 0.567403,-0.6052001 0.856459,-0.8623698 0.667078,-0.593493 1.456064,-1.1162345 2.266936,-1.5019547 0.08233,-0.039162 0.148841,-0.07205 0.147807,-0.073084 -0.0062,-0.00616 -0.41297,0.1960539 -0.608306,0.3023614 -1.055887,0.5746425 -1.989616,1.3331876 -2.767531,2.2482941 -0.254269,0.2991111 -0.546347,0.6898759 -0.744274,0.99575 l -0.06702,0.1035801 h -0.551495 c -0.303322,0 -0.551495,-0.00114 -0.551495,-0.00253 z m 0.311992,-0.5246691 0.0093,-0.016938 -0.01092,0.013446 c -0.006,0.0074 -0.01512,0.021068 -0.02026,0.030384 l -0.0093,0.016938 0.01092,-0.013446 c 0.006,-0.0074 0.01512,-0.021068 0.02026,-0.030384 z M 25.705584,4.8613591 C 25.832282,4.6698817 25.933389,4.525011 26.047756,4.37108 c 0.03894,-0.052411 0.06956,-0.095294 0.06804,-0.095294 -0.004,0 -0.131371,0.17224 -0.220651,0.2983107 -0.06435,0.090875 -0.300763,0.4433847 -0.314909,0.4695631 -0.01512,0.027981 0.02017,-0.023339 0.125349,-0.182301 z m 0.477151,-0.6670558 c 0.16237,-0.2071076 0.371566,-0.4465441 0.590508,-0.6758709 0.04657,-0.048783 0.04101,-0.04387 -0.01863,0.016437 -0.151131,0.152836 -0.336469,0.3609304 -0.490148,0.5503295 -0.08717,0.1074314 -0.147558,0.1850631 -0.143955,0.1850631 0.0015,0 0.02947,-0.034181 0.06222,-0.075959 z M 26.999916,3.2855606 27.149033,3.1350242 26.998497,3.2841411 C 26.858605,3.4227135 26.845472,3.436097 26.84938,3.436097 c 7.81e-4,0 0.06852,-0.067741 0.150536,-0.1505364 z M 27.41164,2.8919292 c 0.40233,-0.368869 0.801345,-0.6844378 1.231709,-0.9741194 0.106265,-0.071528 0.146635,-0.1001982 0.121534,-0.086313 -0.01852,0.010244 -0.175486,0.1162473 -0.270999,0.1830106 -0.417892,0.2921051 -0.818223,0.6190984 -1.190156,0.9721272 -0.05166,0.049035 -0.102628,0.098691 -0.113263,0.1103468 -0.01063,0.011656 0.01174,-0.00859 0.04972,-0.044987 0.03798,-0.036399 0.115134,-0.1084282 0.171456,-0.1600653 z M 30.587893,1.930733 c 0.01367,-0.00732 0.02237,-0.013312 0.01933,-0.013312 -0.003,0 -0.01671,0.00599 -0.03038,0.013312 -0.01367,0.00732 -0.02237,0.013311 -0.01934,0.013311 0.003,0 0.01671,-0.00599 0.03038,-0.013311 z m 0.05524,-0.024859 c 0.01063,-0.00582 0.01685,-0.010585 0.01381,-0.010585 -0.003,0 -0.01422,0.00476 -0.02486,0.010585 -0.01063,0.00582 -0.01685,0.010586 -0.01381,0.010586 0.003,0 0.01422,-0.00476 0.02486,-0.010586 z m 0.04972,-0.022097 c 0.01063,-0.00582 0.01685,-0.010586 0.01381,-0.010586 -0.003,0 -0.01422,0.00476 -0.02486,0.010586 -0.01063,0.00582 -0.01685,0.010585 -0.01381,0.010585 0.003,0 0.01422,-0.00476 0.02486,-0.010585 z m 0.04419,-0.019335 c 0.0076,-0.00434 0.01132,-0.00789 0.0083,-0.00789 -0.003,0 -0.01174,0.00355 -0.01933,0.00789 -0.0076,0.00434 -0.01132,0.00789 -0.0083,0.00789 0.003,0 0.01174,-0.00355 0.01934,-0.00789 z M 28.835312,1.790898 c 0.01595,-0.010544 0.029,-0.020347 0.029,-0.021786 0,-0.00144 -0.0068,0.00183 -0.01519,0.00725 -0.05141,0.033398 -0.0732,0.048523 -0.0732,0.050824 0,0.00264 0.0065,-0.00134 0.05939,-0.036292 z m 0.06491,-0.042365 0.01105,-0.009 -0.01105,0.00542 c -0.0061,0.00298 -0.01602,0.00947 -0.0221,0.01442 l -0.01105,0.009 0.01105,-0.00542 c 0.0061,-0.00298 0.01602,-0.00947 0.0221,-0.01442 z m 0.04419,-0.027621 0.01105,-0.009 -0.01105,0.00542 c -0.0061,0.00298 -0.01602,0.00947 -0.0221,0.01442 l -0.01105,0.009 0.01105,-0.00542 c 0.0061,-0.00298 0.01602,-0.00947 0.0221,-0.01442 z m 0.04419,-0.027621 0.01105,-0.009 -0.01105,0.00542 c -0.0061,0.00298 -0.01602,0.00947 -0.0221,0.01442 l -0.01105,0.009 0.01105,-0.00542 c 0.0061,-0.00298 0.01602,-0.00947 0.0221,-0.01442 z m 0.03591,-0.022586 c 0,-0.00152 -0.005,-1.011e-4 -0.01105,0.00315 -0.0061,0.00325 -0.01105,0.00716 -0.01105,0.00868 0,0.00152 0.005,1.011e-4 0.01105,-0.00315 0.0061,-0.00325 0.01105,-0.00716 0.01105,-0.00868 z m 0.08424,-0.049079 c 0.02962,-0.017598 0.05386,-0.033079 0.05386,-0.034403 0,-0.00303 0.0032,-0.00483 -0.07043,0.039171 -0.03418,0.020415 -0.06215,0.038489 -0.06215,0.040164 0,0.00167 0.0056,-5.507e-4 0.01243,-0.00495 0.0068,-0.00439 0.03667,-0.022388 0.06629,-0.039986 z m 0.08148,-0.050358 c 0,-0.00152 -0.005,-1.011e-4 -0.01105,0.00315 -0.0061,0.00325 -0.01105,0.00716 -0.01105,0.00868 0,0.00152 0.005,1.011e-4 0.01105,-0.00315 0.0061,-0.00325 0.01105,-0.00716 0.01105,-0.00868 z m 0.02762,-0.016573 c 0,-0.00152 -0.005,-1.01e-4 -0.01105,0.00315 -0.0061,0.00325 -0.01105,0.00716 -0.01105,0.00868 0,0.00152 0.005,1.011e-4 0.01105,-0.00315 0.0061,-0.00325 0.01105,-0.00716 0.01105,-0.00868 z m 0.03867,-0.021992 c 0,-0.00152 -0.0075,0.00109 -0.01657,0.00581 -0.0091,0.00471 -0.01657,0.00981 -0.01657,0.011332 0,0.00152 0.0075,-0.00109 0.01657,-0.00581 0.0091,-0.00471 0.01657,-0.00981 0.01657,-0.011332 z m 0.03867,-0.022097 c 0,-0.00152 -0.0075,0.00109 -0.01657,0.00581 -0.0091,0.00471 -0.01657,0.00981 -0.01657,0.011332 0,0.00152 0.0075,-0.00109 0.01657,-0.00581 0.0091,-0.00471 0.01657,-0.00981 0.01657,-0.011332 z m 0.02762,-0.016678 c 0,-0.00152 -0.005,-1.011e-4 -0.01105,0.00315 -0.0061,0.00325 -0.01105,0.00716 -0.01105,0.00868 0,0.00152 0.005,1.011e-4 0.01105,-0.00315 0.0061,-0.00325 0.01105,-0.00716 0.01105,-0.00868 z m 0.04972,-0.027516 c 0,-0.00152 -0.0075,0.00109 -0.01657,0.00581 -0.0091,0.00471 -0.01657,0.00981 -0.01657,0.011332 0,0.00152 0.0075,-0.00109 0.01657,-0.00581 0.0091,-0.00471 0.01657,-0.00981 0.01657,-0.011332 z m 0.03867,-0.022097 c 0,-0.00152 -0.0075,0.00109 -0.01657,0.00581 -0.0091,0.00471 -0.01657,0.00981 -0.01657,0.011332 0,0.00152 0.0075,-0.00109 0.01657,-0.00581 0.0091,-0.00471 0.01657,-0.00981 0.01657,-0.011332 z m 0.04972,-0.027621 c 0,-0.00152 -0.0075,0.00109 -0.01657,0.00581 -0.0091,0.00471 -0.01657,0.00981 -0.01657,0.011332 0,0.00152 0.0075,-0.00109 0.01657,-0.00581 0.0091,-0.00471 0.01657,-0.00981 0.01657,-0.011332 z m 0.06077,-0.033087 c 0,-0.00152 -0.0099,0.00231 -0.0221,0.00851 -0.01215,0.0062 -0.0221,0.012516 -0.0221,0.014035 0,0.00152 0.0099,-0.00231 0.0221,-0.00851 0.01215,-0.0062 0.0221,-0.012516 0.0221,-0.014035 z M 29.582462,1.3505 c 0,-0.00152 -0.01243,0.00354 -0.02762,0.011235 -0.01519,0.0077 -0.02762,0.01524 -0.02762,0.016759 0,0.00152 0.01243,-0.00354 0.02762,-0.011235 0.01519,-0.0077 0.02762,-0.01524 0.02762,-0.016759 z m 0.08286,-0.044167 c 0,-0.00152 -0.01491,0.00477 -0.03315,0.01397 -0.01823,0.0092 -0.03315,0.017975 -0.03315,0.019494 0,0.00152 0.01491,-0.00477 0.03315,-0.01397 0.01823,-0.0092 0.03315,-0.017975 0.03315,-0.019494 z M 29.781349,1.2456 c 0,-0.00152 -0.01989,0.00724 -0.04419,0.019458 -0.02431,0.012221 -0.04419,0.023463 -0.04419,0.024983 0,0.00152 0.01989,-0.00724 0.04419,-0.019458 0.02431,-0.012221 0.04419,-0.023463 0.04419,-0.024983 z M 29.96365,1.151732 c 0,-0.00152 -0.03232,0.013432 -0.07182,0.033225 -0.0395,0.019793 -0.07182,0.03723 -0.07182,0.038749 0,0.00152 0.03232,-0.013432 0.07182,-0.033225 0.0395,-0.019793 0.07182,-0.03723 0.07182,-0.038749 z m 0.193349,-0.099419 c 0,-0.00152 -0.04226,0.018396 -0.09391,0.044256 -0.05165,0.02586 -0.09391,0.048261 -0.09391,0.04978 0,0.00152 0.04226,-0.018396 0.09391,-0.044256 0.05165,-0.02586 0.09391,-0.048261 0.09391,-0.04978 z m -0.132582,0.052542 c 0.03494,-0.017916 0.06104,-0.032575 0.05801,-0.032575 -0.003,0 -0.03411,0.014659 -0.06905,0.032575 -0.03494,0.017916 -0.06104,0.032575 -0.05801,0.032575 0.003,0 0.03411,-0.014659 0.06905,-0.032575 z m 0.104961,-0.049718 c 0.01671,-0.00883 0.0279,-0.016052 0.02486,-0.016052 -0.003,0 -0.0192,0.00722 -0.03591,0.016052 -0.01671,0.00883 -0.0279,0.016051 -0.02486,0.016051 0.003,0 0.0192,-0.00722 0.03591,-0.016051 z m 0.07734,-0.030525 c 0,-0.00144 -1.165276,-0.002 -2.589503,-0.00125 l -2.589502,0.00138 2.582264,0.00139 c 2.331548,0.00126 2.581223,0.00222 2.571548,0.00994 -0.0095,0.00754 -0.0086,0.00752 0.0072,-1.475e-4 0.0099,-0.00478 0.01795,-0.00987 0.01795,-0.011316 z m -5.188672,-9.04e-4 c -0.0053,-0.00139 -0.01402,-0.00139 -0.01933,0 -0.0053,0.00139 -9.67e-4,0.00253 0.0097,0.00253 0.01063,0 0.01498,-0.00114 0.0097,-0.00253 z"
     id="path1715" />
  <path
     style="fill:#00d455;stroke-width:0.00552427"
     d="M 41.092295,1.9124808 C 39.689563,0.9802644 38.014183,0.35247751 36.335368,0.12999755 36.143543,0.10457655 35.995134,0.09807594 35.385723,0.0884011 34.438263,0.07335951 30.543134,0.06116771 26.597987,0.0608954 24.741414,0.06076725 24.737689,0.06074486 24.737689,0.04971845 c 0,-0.01104079 0.0037,-0.01104855 5.241721,-0.01104855 3.455438,0 5.294239,0.0019185 5.395832,0.0056297 0.612186,0.02236331 1.180303,0.08755046 1.761675,0.20213904 1.402217,0.2763774 2.736875,0.82618956 3.924995,1.61690196 0.05925,0.03943 0.108532,0.072361 0.10952,0.07318 9.88e-4,8.187e-4 9.88e-4,0.00731 0,0.014423 -0.0017,0.012119 -0.0067,0.0097 -0.07914,-0.038463 z"
     id="path1754" />
  <path
     style="fill:#00d455;stroke-width:0.00552427"
     d="m 23.871086,9.712971 c -7.94e-4,-0.02023 0.02553,-0.2311043 0.04671,-0.3741896 0.105941,-0.7157533 0.279536,-1.4118518 0.513207,-2.0579146 0.04923,-0.1361035 0.157969,-0.410081 0.1614,-0.40665 0.0015,0.0015 -0.01713,0.053244 -0.0414,0.1149827 -0.329862,0.8391134 -0.553932,1.7335278 -0.671658,2.6810382 -0.0042,0.033422 -0.0079,0.052652 -0.0083,0.042733 z"
     id="path1793" />
  <path
     style="fill:#00d455;stroke-width:0.00552427"
     d="m 23.809401,11.29023 c -1.16e-4,-0.0281 -0.0011,-0.136863 -0.0022,-0.241687 -0.01244,-1.1827819 0.184339,-2.4185733 0.566944,-3.5603927 0.250425,-0.7473536 0.553605,-1.4014941 0.988946,-2.1337499 0.07102,-0.1194547 0.0848,-0.1394879 0.09596,-0.1394879 0.01208,0 0.0096,0.00576 -0.03452,0.078721 -0.431671,0.7145185 -0.789842,1.4900684 -1.054309,2.2829053 -0.2022,0.6061716 -0.364816,1.2823808 -0.447035,1.8589174 -0.04534,0.3179576 -0.07353,0.9048868 -0.07635,1.5896078 l -0.0013,0.316263 -0.01795,1e-6 -0.01795,2e-6 z"
     id="path1832" />
  <path
     style="fill:#00d455;stroke-width:0.00552427"
     d=""
     id="path1871" />
  <path
     style="fill:#00d455;stroke-width:0.00552427"
     d=""
     id="path1910" />
  <path
     style="fill:#00d455;stroke-width:0.00552427"
     d="m 23.851044,11.268133 c -0.0043,-0.07999 0.0052,-0.735895 0.01381,-0.95708 0.01625,-0.417943 0.03828,-0.7085523 0.06929,-0.9142281 0.07148,-0.4740504 0.191661,-1.0050961 0.337288,-1.4903697 0.268761,-0.8955936 0.64109,-1.7383314 1.139113,-2.5782951 0.03783,-0.063805 0.07372,-0.1247105 0.07977,-0.1353447 l 0.01098,-0.019335 -0.01484,0.017954 c -0.01391,0.01683 -0.03061,0.023982 -0.03061,0.013109 0,-0.015438 0.257676,-0.4086689 0.384159,-0.5862521 0.241151,-0.3385794 0.672247,-0.872835 0.704299,-0.872835 0.008,0 -0.01,0.02373 -0.06795,0.089769 -0.04333,0.049373 -0.104634,0.1208435 -0.13624,0.1588229 -0.03161,0.037979 -0.06246,0.074647 -0.06856,0.081483 -0.0061,0.00684 -0.0097,0.01243 -0.008,0.01243 0.0017,0 0.0391,-0.042882 0.08307,-0.095294 0.04397,-0.052412 0.110255,-0.1294751 0.147291,-0.1712524 l 0.06734,-0.075959 h 0.658741 0.65874 l -0.131911,0.1312015 c -0.43481,0.4324708 -0.756216,0.8138855 -1.15253,1.3677155 -0.131333,0.1835329 -0.339296,0.5133885 -0.487045,0.7725166 -0.557733,0.9781724 -0.944891,2.0154303 -1.139898,3.0539644 -0.117635,0.6264839 -0.178185,1.3741172 -0.166771,2.0591722 l 0.0035,0.211304 h -0.474597 -0.474597 z m 1.679248,-6.1384818 0.0093,-0.016938 -0.01092,0.013446 c -0.006,0.0074 -0.01512,0.021068 -0.02026,0.030384 l -0.0093,0.016938 0.01092,-0.013446 c 0.006,-0.0074 0.01512,-0.021068 0.02026,-0.030384 z m 0.03867,-0.060767 0.0093,-0.016938 -0.01092,0.013446 c -0.006,0.0074 -0.01512,0.021068 -0.02026,0.030384 l -0.0093,0.016938 0.01092,-0.013446 c 0.006,-0.0074 0.01512,-0.021068 0.02026,-0.030384 z m 0.03713,-0.056989 c 0.02958,-0.04502 0.03323,-0.051099 0.03066,-0.051099 -0.0024,0 -0.01022,0.011117 -0.03974,0.056624 -0.0054,0.00836 -0.0087,0.015192 -0.0072,0.015192 0.0015,0 0.0088,-0.00932 0.01627,-0.020716 z m 0.119826,-0.1823009 c 0.03082,-0.046335 0.05479,-0.084245 0.05327,-0.084245 -0.0025,0 -0.104895,0.151204 -0.115986,0.1712524 -0.01376,0.02487 0.0129,-0.012112 0.06271,-0.087007 z m 0.1111,-0.1643471 c 0.0094,-0.013673 0.01586,-0.024859 0.01434,-0.024859 -0.0015,0 -0.01046,0.011187 -0.01986,0.024859 -0.0094,0.013672 -0.01586,0.024859 -0.01434,0.024859 0.0015,0 0.01046,-0.011187 0.01987,-0.024859 z m 0.04419,-0.063529 c 0.0065,-0.00911 0.01056,-0.016573 0.009,-0.016573 -0.0015,0 -0.0081,0.00746 -0.01456,0.016573 -0.0065,0.00912 -0.01056,0.016573 -0.009,0.016573 0.0015,0 0.0081,-0.00746 0.01456,-0.016573 z m 0.03315,-0.046956 c 0.0094,-0.013673 0.01586,-0.024859 0.01434,-0.024859 -0.0015,0 -0.01046,0.011187 -0.01987,0.024859 -0.0094,0.013673 -0.01586,0.024859 -0.01434,0.024859 0.0015,0 0.01046,-0.011187 0.01987,-0.024859 z m 0.03314,-0.046956 c 0.0065,-0.00911 0.01056,-0.016573 0.009,-0.016573 -0.0015,0 -0.0081,0.00746 -0.01456,0.016573 -0.0065,0.00912 -0.01056,0.016573 -0.009,0.016573 0.0015,0 0.0081,-0.00746 0.01456,-0.016573 z m 0.0228,-0.031764 c 0.0069,-0.00876 0.0067,-0.00896 -0.0021,-0.00209 -0.0092,0.00722 -0.01213,0.011753 -0.0076,0.011753 0.0011,0 0.0055,-0.00435 0.0097,-0.00967 z m 0.02139,-0.029002 c 0.0065,-0.00912 0.01056,-0.016573 0.009,-0.016573 -0.0015,0 -0.0081,0.00746 -0.01456,0.016573 -0.0065,0.00912 -0.01056,0.016573 -0.009,0.016573 0.0015,0 0.0081,-0.00746 0.01456,-0.016573 z m 0.0228,-0.031765 c 0.0069,-0.00876 0.0067,-0.00896 -0.0021,-0.00209 -0.0053,0.00417 -0.0097,0.00852 -0.0097,0.00967 0,0.00455 0.0045,0.00162 0.01175,-0.00758 z m 0.01657,-0.022097 c 0.0069,-0.00876 0.0067,-0.00896 -0.0021,-0.00209 -0.0092,0.00722 -0.01213,0.011753 -0.0076,0.011753 0.0011,0 0.0055,-0.00435 0.0097,-0.00967 z m 0.01657,-0.022097 c 0.0069,-0.00876 0.0067,-0.00896 -0.0021,-0.00209 -0.0053,0.00417 -0.0097,0.00852 -0.0097,0.00967 0,0.00455 0.0045,0.00162 0.01175,-0.00758 z m 0.01657,-0.022097 c 0.0069,-0.00876 0.0067,-0.00896 -0.0021,-0.00209 -0.0092,0.00722 -0.01213,0.011753 -0.0076,0.011753 0.0011,0 0.0055,-0.00435 0.0097,-0.00967 z m 0.01657,-0.022097 c 0.0069,-0.00876 0.0067,-0.00896 -0.0021,-0.00209 -0.0092,0.00722 -0.01213,0.011753 -0.0076,0.011753 0.0011,0 0.0055,-0.00435 0.0097,-0.00967 z m 0.01657,-0.022097 c 0.0069,-0.00876 0.0067,-0.00896 -0.0021,-0.00209 -0.0053,0.00417 -0.0097,0.00852 -0.0097,0.00967 0,0.00455 0.0045,0.00162 0.01175,-0.00758 z m 0.03315,-0.044194 c 0.0069,-0.00876 0.0067,-0.00896 -0.0021,-0.00209 -0.0092,0.00722 -0.01213,0.011753 -0.0076,0.011753 0.0011,0 0.0055,-0.00435 0.0097,-0.00967 z m 0.01863,-0.023478 c 0.0055,-0.00608 0.0088,-0.011048 0.0072,-0.011048 -0.0015,0 -0.0073,0.00497 -0.01276,0.011048 -0.0055,0.00608 -0.0088,0.011049 -0.0072,0.011049 0.0015,0 0.0073,-0.00497 0.01276,-0.011049 z m 0.03038,-0.03867 c 0.0096,-0.012153 0.01626,-0.022097 0.01474,-0.022097 -0.0015,0 -0.01064,0.00994 -0.02026,0.022097 -0.0096,0.012153 -0.01626,0.022097 -0.01474,0.022097 0.0015,0 0.01064,-0.00994 0.02026,-0.022097 z m 0.03038,-0.03867 c 0.0055,-0.00608 0.0088,-0.011049 0.0072,-0.011049 -0.0015,0 -0.0073,0.00497 -0.01276,0.011049 -0.0055,0.00608 -0.0088,0.011049 -0.0072,0.011049 0.0015,0 0.0073,-0.00497 0.01276,-0.011049 z m 0.0221,-0.027621 c 0.0055,-0.00608 0.0088,-0.011049 0.0072,-0.011049 -0.0015,0 -0.0073,0.00497 -0.01276,0.011049 -0.0055,0.00608 -0.0088,0.011049 -0.0072,0.011049 0.0015,0 0.0073,-0.00497 0.01276,-0.011049 z m 0.0221,-0.027621 c 0.0055,-0.00608 0.0088,-0.011049 0.0072,-0.011049 -0.0015,0 -0.0073,0.00497 -0.01276,0.011049 -0.0055,0.00608 -0.0088,0.011049 -0.0072,0.011049 0.0015,0 0.0073,-0.00497 0.01276,-0.011049 z"
     id="path1949" />
  <path
     style="fill:#00d455;stroke-width:0.00552427"
     d="m 23.850886,11.282898 c -0.0067,-0.09892 0.0055,-0.791087 0.0197,-1.109952 0.01887,-0.4248669 0.03934,-0.6405074 0.08812,-0.9280277 0.232862,-1.3725447 0.715137,-2.6765052 1.443523,-3.9029475 0.04241,-0.071401 0.08204,-0.1385212 0.08808,-0.1491554 l 0.01098,-0.019335 -0.01484,0.017954 c -0.01322,0.015991 -0.03061,0.024114 -0.03061,0.014296 0,-0.019378 0.27874,-0.4423008 0.424291,-0.6437632 0.143193,-0.1981974 0.314292,-0.4175065 0.481866,-0.6176372 0.129405,-0.1545454 0.167459,-0.1959082 0.182189,-0.1980298 0.01295,-0.00187 -0.0087,0.025338 -0.09057,0.1137847 -0.0091,0.00987 -0.01517,0.017954 -0.01341,0.017954 0.0018,0 0.02978,-0.029831 0.06226,-0.066291 l 0.05905,-0.066291 h 0.65887 0.65887 L 27.755331,3.8683713 C 27.36645,4.2540801 27.046227,4.6262777 26.720399,5.0712814 26.522067,5.342155 26.394806,5.5338362 26.219759,5.8253445 25.906631,6.346801 25.615116,6.950316 25.403234,7.5157717 c -0.341948,0.9125671 -0.528338,1.8098735 -0.58523,2.8173783 -0.01396,0.247214 -0.02111,0.578828 -0.01723,0.799639 l 0.0037,0.208541 H 24.329692 23.85491 Z m 1.671249,-6.139801 c 0.0033,-0.00608 0.0047,-0.011049 0.0032,-0.011049 -0.0015,0 -0.0054,0.00497 -0.0087,0.011049 -0.0033,0.00608 -0.0047,0.011049 -0.0032,0.011049 0.0015,0 0.0054,-0.00497 0.0087,-0.011049 z m 0.03867,-0.060767 c 0.0033,-0.00608 0.0047,-0.011049 0.0032,-0.011049 -0.0015,0 -0.0054,0.00497 -0.0087,0.011049 -0.0033,0.00608 -0.0047,0.011049 -0.0032,0.011049 0.0015,0 0.0054,-0.00497 0.0087,-0.011049 z m 0.05043,-0.080102 0.0054,-0.011048 -0.009,0.011048 c -0.0049,0.00608 -0.01144,0.01602 -0.01442,0.022097 l -0.0054,0.011049 0.009,-0.011049 c 0.0049,-0.00608 0.01144,-0.01602 0.01442,-0.022097 z m 0.109191,-0.164347 c 0.0157,-0.023547 0.0273,-0.042813 0.02578,-0.042813 -0.0026,0 -0.05086,0.070027 -0.06094,0.088388 -0.01047,0.019062 0.0082,-0.00509 0.03516,-0.045575 z m 0.1173,-0.1740146 c 0.0069,-0.00876 0.0067,-0.00896 -0.0021,-0.00209 -0.0092,0.00722 -0.01213,0.011753 -0.0076,0.011753 0.0011,0 0.0055,-0.00435 0.0097,-0.00967 z m 0.04349,-0.062148 c 0.0065,-0.00911 0.01056,-0.016573 0.009,-0.016573 -0.0015,0 -0.0081,0.00746 -0.01456,0.016573 -0.0065,0.00912 -0.01056,0.016573 -0.009,0.016573 0.0015,0 0.0081,-0.00746 0.01456,-0.016573 z m 0.03385,-0.048337 c 0.0069,-0.00876 0.0067,-0.00896 -0.0021,-0.00209 -0.0053,0.00417 -0.0097,0.00852 -0.0097,0.00967 0,0.00455 0.0045,0.00162 0.01175,-0.00758 z m 0.02762,-0.03867 c 0.0069,-0.00876 0.0067,-0.00896 -0.0021,-0.00209 -0.0092,0.00722 -0.01213,0.011753 -0.0076,0.011753 0.0011,0 0.0055,-0.00435 0.0097,-0.00967 z m 0.04901,-0.067672 c 0.0065,-0.00912 0.01056,-0.016573 0.009,-0.016573 -0.0015,0 -0.0081,0.00746 -0.01456,0.016573 -0.0065,0.00912 -0.01056,0.016573 -0.009,0.016573 0.0015,0 0.0081,-0.00746 0.01456,-0.016573 z m 0.0228,-0.031765 c 0.0069,-0.00876 0.0067,-0.00896 -0.0021,-0.00209 -0.0053,0.00417 -0.0097,0.00852 -0.0097,0.00967 0,0.00455 0.0045,0.00162 0.01175,-0.00758 z m 0.13464,-0.1781578 c 0.0055,-0.00608 0.0088,-0.011048 0.0072,-0.011048 -0.0015,0 -0.0073,0.00497 -0.01276,0.011048 -0.0055,0.00608 -0.0088,0.011049 -0.0072,0.011049 0.0015,0 0.0073,-0.00497 0.01276,-0.011049 z m 0.02004,-0.02624 c 0.0069,-0.00876 0.0067,-0.00896 -0.0021,-0.00209 -0.0053,0.00417 -0.0097,0.00852 -0.0097,0.00967 0,0.00455 0.0045,0.00162 0.01175,-0.00758 z m 0.01863,-0.023478 c 0.0055,-0.00608 0.0088,-0.011049 0.0072,-0.011049 -0.0015,0 -0.0073,0.00497 -0.01276,0.011049 -0.0055,0.00608 -0.0088,0.011049 -0.0072,0.011049 0.0015,0 0.0073,-0.00497 0.01276,-0.011049 z m 0.0221,-0.027621 c 0.0055,-0.00608 0.0088,-0.011049 0.0072,-0.011049 -0.0015,0 -0.0073,0.00497 -0.01276,0.011049 -0.0055,0.00608 -0.0088,0.011049 -0.0072,0.011049 0.0015,0 0.0073,-0.00497 0.01276,-0.011049 z m 0.0221,-0.027621 c 0.0055,-0.00608 0.0088,-0.011049 0.0072,-0.011049 -0.0015,0 -0.0073,0.00497 -0.01276,0.011049 -0.0055,0.00608 -0.0088,0.011049 -0.0072,0.011049 0.0015,0 0.0073,-0.00497 0.01276,-0.011049 z m 0.0221,-0.027621 c 0.0055,-0.00608 0.0088,-0.011049 0.0072,-0.011049 -0.0015,0 -0.0073,0.00497 -0.01276,0.011049 -0.0055,0.00608 -0.0088,0.011049 -0.0072,0.011049 0.0015,0 0.0073,-0.00497 0.01276,-0.011049 z m 0.02556,-0.031765 c 0.0069,-0.00876 0.0067,-0.00896 -0.0021,-0.00209 -0.0092,0.00722 -0.01213,0.011753 -0.0076,0.011753 0.0011,0 0.0055,-0.00435 0.0097,-0.00967 z m 0.02139,-0.02624 c 0.0071,-0.0076 0.01173,-0.013811 0.01021,-0.013811 -0.0015,0 -0.0086,0.00621 -0.01574,0.013811 -0.0071,0.0076 -0.01173,0.013811 -0.01021,0.013811 0.0015,0 0.0086,-0.00621 0.01574,-0.013811 z m 0.04419,-0.05248 c 0.01579,-0.01823 0.02747,-0.033146 0.02595,-0.033146 -0.0015,0 -0.01568,0.014916 -0.03148,0.033146 -0.01579,0.01823 -0.02747,0.033146 -0.02595,0.033146 0.0015,0 0.01568,-0.014915 0.03148,-0.033146 z m 0.06424,-0.075705 c 0.01784,-0.020369 0.02959,-0.035296 0.0261,-0.033171 -0.0078,0.00476 -0.06483,0.070206 -0.06118,0.070206 0.0014,0 0.01723,-0.016666 0.03507,-0.037035 z"
     id="path1988" />
  <path
     style="fill:#00d455;stroke-width:0.00552427"
     d="m 23.850746,11.281944 c -0.0045,-0.06499 0.0056,-0.760967 0.01427,-0.981939 0.01243,-0.3169858 0.02998,-0.5836203 0.04999,-0.7595877 0.02369,-0.2082877 0.09983,-0.6260875 0.168145,-0.9225534 0.267194,-1.1595938 0.698465,-2.2288112 1.326649,-3.2890586 0.04659,-0.078642 0.08472,-0.1442329 0.08472,-0.1457571 0,-0.00152 -0.0052,0.00378 -0.01145,0.011784 -0.01004,0.012762 -0.02722,0.020033 -0.02722,0.011519 0,-0.019084 0.243787,-0.3914879 0.394004,-0.6018713 0.152153,-0.2130965 0.319858,-0.4299559 0.495564,-0.6408155 0.138244,-0.1659031 0.186193,-0.2182088 0.200035,-0.2182088 0.01091,0 0.01032,0.00172 -0.0071,0.020716 l -0.01903,0.020716 0.02232,-0.020716 0.02232,-0.020716 h 0.657971 0.657971 L 27.769436,3.85456 c -0.06076,0.060007 -0.153104,0.1537769 -0.205213,0.2083767 -0.05211,0.0546 -0.0012,0.0055 0.113208,-0.1091044 0.158703,-0.1590256 0.211037,-0.2083097 0.220971,-0.2080938 0.01048,2.277e-4 -0.0098,0.022611 -0.10376,0.1146287 -0.383002,0.3750232 -0.691986,0.7284277 -1.034564,1.1832923 -0.06751,0.089631 -0.125472,0.1639331 -0.128817,0.1651151 -0.0033,0.00118 -5.24e-4,-0.00565 0.0063,-0.015192 0.0068,-0.00954 0.01123,-0.017341 0.0099,-0.017341 -0.01347,0 -0.276393,0.3977302 -0.410836,0.6214806 -0.665896,1.1082378 -1.108714,2.2869299 -1.302307,3.4664805 -0.09595,0.5846149 -0.144406,1.2664353 -0.133193,1.8741093 l 0.0037,0.203017 H 24.329812 23.854869 Z M 26.66566,5.1541455 c 0.0065,-0.00912 0.01056,-0.016573 0.009,-0.016573 -0.0015,0 -0.0081,0.00746 -0.01456,0.016573 -0.0065,0.00912 -0.01056,0.016573 -0.009,0.016573 0.0015,0 0.0081,-0.00746 0.01456,-0.016573 z M 25.522135,5.143097 c 0.0033,-0.00608 0.0047,-0.011049 0.0032,-0.011049 -0.0015,0 -0.0054,0.00497 -0.0087,0.011049 -0.0033,0.00608 -0.0047,0.011049 -0.0032,0.011049 0.0015,0 0.0054,-0.00497 0.0087,-0.011049 z m 1.18197,-0.041945 c 0.01038,-0.014455 0.01649,-0.024807 0.01357,-0.023006 -0.0029,0.0018 -0.01379,0.015102 -0.02417,0.029557 -0.01038,0.014455 -0.01649,0.024807 -0.01357,0.023006 0.0029,-0.0018 0.01379,-0.015102 0.02417,-0.029557 z m -1.1433,-0.018822 c 0.0033,-0.00608 0.0047,-0.011049 0.0032,-0.011049 -0.0015,0 -0.0054,0.00497 -0.0087,0.011049 -0.0033,0.00608 -0.0047,0.011049 -0.0032,0.011049 0.0015,0 0.0054,-0.00497 0.0087,-0.011049 z m 1.188053,-0.042813 c 0.01307,-0.01747 0.02982,-0.039844 0.03723,-0.049718 0.0074,-0.00987 0.01223,-0.017954 0.01071,-0.017954 -0.0015,0 -0.01345,0.014294 -0.02651,0.031765 -0.01307,0.01747 -0.02982,0.039844 -0.03723,0.049718 -0.0074,0.00987 -0.01223,0.017954 -0.01071,0.017954 0.0015,0 0.01345,-0.014294 0.02651,-0.031765 z m 0.09634,-0.1284393 c 0.02301,-0.030383 0.04059,-0.055243 0.03907,-0.055243 -0.0015,0 -0.02159,0.024859 -0.0446,0.055243 -0.02301,0.030384 -0.04059,0.055243 -0.03907,0.055243 0.0015,0 0.02159,-0.024859 0.0446,-0.055243 z m 0.06353,-0.082864 c 0.0096,-0.012153 0.01626,-0.022097 0.01474,-0.022097 -0.0015,0 -0.01064,0.00994 -0.02026,0.022097 -0.0096,0.012153 -0.01626,0.022097 -0.01474,0.022097 0.0015,0 0.01064,-0.00994 0.02026,-0.022097 z m 0.09521,-0.1201529 c 0.04085,-0.050892 0.08733,-0.1086901 0.103295,-0.1284393 0.01596,-0.019749 0.01984,-0.025964 0.0086,-0.013811 -0.01122,0.012153 -0.05537,0.065601 -0.09809,0.1187718 -0.04273,0.053171 -0.08139,0.1010251 -0.08593,0.1063423 -0.0045,0.00532 -0.0069,0.00967 -0.0052,0.00967 0.0017,0 0.03646,-0.041639 0.07732,-0.092532 z M 27.23877,4.4263229 c 0.05465,-0.063046 0.12999,-0.1481886 0.167421,-0.1892063 0.03743,-0.041018 0.0611,-0.068363 0.0526,-0.060767 -0.01693,0.015125 -0.166832,0.1809482 -0.227229,0.2513544 -0.02085,0.024307 -0.05136,0.059731 -0.0678,0.078721 -0.01644,0.01899 -0.02865,0.034527 -0.02712,0.034527 0.0015,0 0.04748,-0.051583 0.102132,-0.1146287 z m -0.93495,-0.382556 c 0.0055,-0.00608 0.0088,-0.011048 0.0072,-0.011048 -0.0015,0 -0.0073,0.00497 -0.01276,0.011048 -0.0055,0.00608 -0.0088,0.011049 -0.0072,0.011049 0.0015,0 0.0073,-0.00497 0.01276,-0.011049 z m 0.02762,-0.033146 c 0.0055,-0.00608 0.0088,-0.011049 0.0072,-0.011049 -0.0015,0 -0.0073,0.00497 -0.01276,0.011049 -0.0055,0.00608 -0.0088,0.011048 -0.0072,0.011048 0.0015,0 0.0073,-0.00497 0.01276,-0.011048 z m 0.02762,-0.033146 c 0.0055,-0.00608 0.0088,-0.011048 0.0072,-0.011048 -0.0015,0 -0.0073,0.00497 -0.01276,0.011048 -0.0055,0.00608 -0.0088,0.011049 -0.0072,0.011049 0.0015,0 0.0073,-0.00497 0.01276,-0.011049 z m 0.03315,-0.03867 c 0.0055,-0.00608 0.0088,-0.011049 0.0072,-0.011049 -0.0015,0 -0.0073,0.00497 -0.01276,0.011049 -0.0055,0.00608 -0.0088,0.011049 -0.0072,0.011049 0.0015,0 0.0073,-0.00497 0.01276,-0.011049 z m 0.03038,-0.035908 c 0.0071,-0.0076 0.01173,-0.013811 0.01021,-0.013811 -0.0015,0 -0.0086,0.00621 -0.01574,0.013811 -0.0071,0.0076 -0.01173,0.013811 -0.01021,0.013811 0.0015,0 0.0086,-0.00621 0.01574,-0.013811 z m 0.03867,-0.044194 c 0.0071,-0.0076 0.01173,-0.013811 0.01021,-0.013811 -0.0015,0 -0.0086,0.00621 -0.01574,0.013811 -0.0071,0.0076 -0.01173,0.013811 -0.01021,0.013811 0.0015,0 0.0086,-0.00621 0.01574,-0.013811 z m 0.03867,-0.044194 c 0.01031,-0.010634 0.0175,-0.019335 0.01598,-0.019335 -0.0015,0 -0.0112,0.0087 -0.0215,0.019335 -0.01031,0.010634 -0.0175,0.019335 -0.01598,0.019335 0.0015,0 0.0112,-0.0087 0.0215,-0.019335 z"
     id="path2027" />
  <path
     style="fill:#00d455;stroke-width:0.00552427"
     d="m 23.850759,11.292992 c -0.01102,-0.131871 0.01032,-1.010485 0.03371,-1.3879728 0.0172,-0.2775869 0.03159,-0.4070002 0.0722,-0.6491019 0.13006,-0.7754234 0.342119,-1.5338848 0.634804,-2.2704757 0.12519,-0.3150608 0.237745,-0.5655665 0.398379,-0.8866456 0.151404,-0.3026304 0.247395,-0.4786543 0.423265,-0.7761602 0.03951,-0.066844 0.07318,-0.1240199 0.07481,-0.1270582 0.0016,-0.00304 -0.002,-0.00117 -0.0081,0.00414 -0.01061,0.00928 -0.02399,0.012978 -0.02399,0.00663 0,-0.017056 0.215232,-0.3485208 0.363013,-0.559055 0.142998,-0.203718 0.345802,-0.4670649 0.526468,-0.6836318 0.138755,-0.1663275 0.186324,-0.2182088 0.200071,-0.2182088 0.01121,0 0.01098,9.561e-4 -0.0044,0.017954 l -0.01621,0.017954 0.01959,-0.017954 0.01959,-0.017954 h 0.65771 0.657711 l -0.149741,0.1500053 -0.14974,0.1500053 0.153811,-0.1500053 c 0.103983,-0.1014101 0.15763,-0.1500053 0.1656,-0.1500053 0.0086,0 -0.04079,0.052812 -0.182094,0.1947306 -0.206314,0.2072173 -0.245323,0.2481378 -0.385751,0.4046529 -0.190523,0.2123477 -0.380397,0.4448528 -0.579713,0.7098689 -0.06284,0.083555 -0.117041,0.1528846 -0.120446,0.1540666 -0.0034,0.00118 -6.34e-4,-0.00565 0.0062,-0.015192 0.0068,-0.00954 0.01123,-0.017341 0.0099,-0.017341 -0.0073,0 -0.151095,0.2100487 -0.260924,0.3811748 -0.503184,0.784015 -0.920454,1.6823542 -1.179063,2.5384028 -0.210143,0.695614 -0.330503,1.3647719 -0.381061,2.1185574 -0.01936,0.28866 -0.02431,0.448917 -0.02443,0.791352 l -1.2e-4,0.3356 H 24.328272 23.854797 Z M 26.66566,5.1541455 c 0.0065,-0.00912 0.01056,-0.016573 0.009,-0.016573 -0.0015,0 -0.0081,0.00746 -0.01456,0.016573 -0.0065,0.00912 -0.01056,0.016573 -0.009,0.016573 0.0015,0 0.0081,-0.00746 0.01456,-0.016573 z m 0.03844,-0.052994 c 0.01038,-0.014455 0.01649,-0.024807 0.01357,-0.023006 -0.0029,0.0018 -0.01379,0.015102 -0.02417,0.029557 -0.01038,0.014455 -0.01649,0.024807 -0.01357,0.023006 0.0029,-0.0018 0.01379,-0.015102 0.02417,-0.029557 z m -1.1433,-0.018822 c 0.0033,-0.00608 0.0047,-0.011049 0.0032,-0.011049 -0.0015,0 -0.0054,0.00497 -0.0087,0.011049 -0.0033,0.00608 -0.0047,0.011049 -0.0032,0.011049 0.0015,0 0.0054,-0.00497 0.0087,-0.011049 z m 1.204727,-0.066291 c 0.01307,-0.019095 0.01372,-0.021016 0.0028,-0.00829 -0.0078,0.00912 -0.02191,0.02776 -0.03127,0.041432 -0.01307,0.019095 -0.01372,0.021016 -0.0028,0.00829 0.0078,-0.00912 0.0219,-0.02776 0.03127,-0.041432 z m 0.02789,-0.037289 c 0.0069,-0.00876 0.0067,-0.00896 -0.0021,-0.00209 -0.0053,0.00417 -0.0097,0.00852 -0.0097,0.00967 0,0.00455 0.0045,0.00162 0.01175,-0.00758 z m 0.03315,-0.044194 c 0.0069,-0.00876 0.0067,-0.00896 -0.0021,-0.00209 -0.0092,0.00722 -0.01213,0.011753 -0.0076,0.011753 0.0011,0 0.0055,-0.00435 0.0097,-0.00967 z m 0.02692,-0.034527 c 0.0096,-0.012153 0.01626,-0.022097 0.01474,-0.022097 -0.0015,0 -0.01064,0.00994 -0.02026,0.022097 -0.0096,0.012153 -0.01626,0.022097 -0.01474,0.022097 0.0015,0 0.01064,-0.00994 0.02026,-0.022097 z m 0.05524,-0.071815 c 0.0096,-0.012153 0.01626,-0.022097 0.01474,-0.022097 -0.0015,0 -0.01064,0.00994 -0.02026,0.022097 -0.0096,0.012153 -0.01626,0.022097 -0.01474,0.022097 0.0015,0 0.01064,-0.00994 0.02026,-0.022097 z m 0.03867,-0.049718 c 0.0096,-0.012153 0.01626,-0.022097 0.01474,-0.022097 -0.0015,0 -0.01064,0.00994 -0.02026,0.022097 -0.0096,0.012153 -0.01626,0.022097 -0.01474,0.022097 0.0015,0 0.01064,-0.00994 0.02026,-0.022097 z m 0.03038,-0.03867 c 0.0055,-0.00608 0.0088,-0.011049 0.0072,-0.011049 -0.0015,0 -0.0073,0.00497 -0.01276,0.011049 -0.0055,0.00608 -0.0088,0.011049 -0.0072,0.011049 0.0015,0 0.0073,-0.00497 0.01276,-0.011049 z m 0.0221,-0.027621 c 0.0055,-0.00608 0.0088,-0.011049 0.0072,-0.011049 -0.0015,0 -0.0073,0.00497 -0.01276,0.011049 -0.0055,0.00608 -0.0088,0.011049 -0.0072,0.011049 0.0015,0 0.0073,-0.00497 0.01276,-0.011049 z m 0.03591,-0.044194 c 0.01272,-0.015192 0.02188,-0.027621 0.02036,-0.027621 -0.0015,0 -0.01317,0.01243 -0.02589,0.027621 -0.01272,0.015192 -0.02188,0.027621 -0.02036,0.027621 0.0015,0 0.01317,-0.01243 0.02589,-0.027621 z m 0.04972,-0.060767 c 0.01272,-0.015192 0.02188,-0.027621 0.02036,-0.027621 -0.0015,0 -0.01317,0.01243 -0.02589,0.027621 -0.01272,0.015192 -0.02188,0.027621 -0.02036,0.027621 0.0015,0 0.01317,-0.01243 0.02589,-0.027621 z m 0.03385,-0.042813 c 0.0069,-0.00876 0.0067,-0.00896 -0.0021,-0.00209 -0.0053,0.00417 -0.0097,0.00852 -0.0097,0.00967 0,0.00455 0.0045,0.00162 0.01175,-0.00758 z m 0.0352,-0.040051 c 0.0055,-0.00608 0.0088,-0.011049 0.0072,-0.011049 -0.0015,0 -0.0073,0.00497 -0.01276,0.011049 -0.0055,0.00608 -0.0088,0.011049 -0.0072,0.011049 0.0015,0 0.0073,-0.00497 0.01276,-0.011049 z m 0.02797,-0.034527 0.01622,-0.017954 -0.01795,0.016225 c -0.01674,0.015124 -0.02049,0.019682 -0.01622,0.019682 9.5e-4,0 0.009,-0.00808 0.01795,-0.017953 z m 0.03315,-0.03867 0.01622,-0.017954 -0.01795,0.016225 c -0.0099,0.00892 -0.01795,0.017003 -0.01795,0.017954 0,0.00427 0.0046,5.105e-4 0.01968,-0.016225 z m 0.03556,-0.040051 c 0.01031,-0.010634 0.0175,-0.019335 0.01598,-0.019335 -0.0015,0 -0.01119,0.0087 -0.0215,0.019335 -0.01031,0.010634 -0.0175,0.019335 -0.01598,0.019335 0.0015,0 0.0112,-0.0087 0.0215,-0.019335 z m 0.06423,-0.072907 c 0.02392,-0.026426 0.04068,-0.04635 0.03724,-0.044275 -0.0079,0.00478 -0.087,0.092322 -0.0834,0.092322 0.0015,0 0.02224,-0.021621 0.04616,-0.048047 z m 0.09045,-0.099496 c 0,-0.00415 -0.005,2.376e-4 -0.02785,0.024628 l -0.02463,0.02624 0.02624,-0.024628 c 0.01443,-0.013546 0.02624,-0.025354 0.02624,-0.02624 z m 0.05524,-0.060767 c 0,-0.00415 -0.005,2.376e-4 -0.02785,0.024628 l -0.02463,0.02624 0.02624,-0.024628 c 0.01443,-0.013546 0.02624,-0.025354 0.02624,-0.02624 z M 26.301762,4.045148 c 0.0069,-0.00876 0.0067,-0.00896 -0.0021,-0.00209 -0.0053,0.00417 -0.0097,0.00852 -0.0097,0.00967 0,0.00455 0.0045,0.00162 0.01175,-0.00758 z m 0.02762,-0.033146 c 0.0069,-0.00876 0.0067,-0.00896 -0.0021,-0.00209 -0.0053,0.00417 -0.0097,0.00852 -0.0097,0.00967 0,0.00455 0.0045,0.00162 0.01175,-0.00758 z m 0.02968,-0.034527 c 0.0055,-0.00608 0.0088,-0.011048 0.0072,-0.011048 -0.0015,0 -0.0073,0.00497 -0.01276,0.011048 -0.0055,0.00608 -0.0088,0.011049 -0.0072,0.011049 0.0015,0 0.0073,-0.00497 0.01276,-0.011049 z m 0.03315,-0.03867 c 0.0055,-0.00608 0.0088,-0.011049 0.0072,-0.011049 -0.0015,0 -0.0073,0.00497 -0.01276,0.011049 -0.0055,0.00608 -0.0088,0.011049 -0.0072,0.011049 0.0015,0 0.0073,-0.00497 0.01276,-0.011049 z m 0.03109,-0.037289 c 0.0069,-0.00876 0.0067,-0.00896 -0.0021,-0.00209 -0.0092,0.00722 -0.01213,0.011753 -0.0076,0.011753 0.0011,0 0.0055,-0.00435 0.0097,-0.00967 z m 0.0352,-0.040051 c 0.0055,-0.00608 0.0088,-0.011048 0.0072,-0.011048 -0.0015,0 -0.0073,0.00497 -0.01276,0.011048 -0.0055,0.00608 -0.0088,0.011049 -0.0072,0.011049 0.0015,0 0.0073,-0.00497 0.01276,-0.011049 z m 0.04143,-0.046956 c 0.0071,-0.0076 0.01173,-0.013811 0.01021,-0.013811 -0.0015,0 -0.0086,0.00621 -0.01574,0.013811 -0.0071,0.0076 -0.01173,0.013811 -0.01021,0.013811 0.0015,0 0.0086,-0.00621 0.01574,-0.013811 z"
     id="path2066" />
  <path
     style="fill:#00d455;stroke-width:0.00552427"
     d=""
     id="path2105" />
  <path
     style="fill:#00d455;stroke-width:0.00552427"
     d="m 23.712013,21.943788 c 1.980495,-7.64e-4 5.219652,-7.64e-4 7.198126,0 1.978473,7.65e-4 0.358068,0.0014 -3.600902,0.0014 -3.958969,0 -5.57772,-6.25e-4 -3.597224,-0.0014 z"
     id="path2183" />
  <path
     style="fill:#00d455;stroke-width:0.00552427"
     d="m 20.113873,21.924044 v -0.01847 l 2.718862,-0.0037 c 1.495373,-0.002 3.633888,-0.0037 4.752254,-0.0038 2.389899,-1.48e-4 5.729092,-0.0084 6.646161,-0.01633 1.659214,-0.01444 2.217349,-0.03649 2.607456,-0.103026 0.13785,-0.02351 0.596975,-0.121443 0.773398,-0.164965 1.147305,-0.28303 2.428576,-0.844419 3.393284,-1.486769 0.155616,-0.103616 0.167099,-0.110268 0.166966,-0.09672 -1.55e-4,0.0159 -0.04413,0.04692 -0.287119,0.202541 -1.535854,0.983646 -3.336278,1.570553 -5.176243,1.687365 -0.05317,0.0034 -0.140178,0.009 -0.193349,0.01243 -0.07136,0.0046 -2.100917,0.0068 -7.749172,0.0081 l -7.652498,0.0018 z"
     id="path2222" />
  <path
     style="fill:#00d455;stroke-width:0.00552427"
     d="m 20.113873,21.925188 v -0.01456 l 1.216721,-0.0034 c 0.669197,-0.0019 3.042631,-0.0047 5.274299,-0.0064 8.234924,-0.0061 9.367893,-0.01641 10.029167,-0.0913 0.103929,-0.01177 0.144825,-0.01228 0.06511,-8.19e-4 -0.02358,0.0034 -0.07643,0.01118 -0.117444,0.0173 -0.261349,0.03903 -0.545133,0.06851 -0.914267,0.09497 -0.159382,0.01143 -0.179293,0.0115 -3.883563,0.01368 -2.047847,0.0012 -5.511358,0.0028 -7.696691,0.0036 l -3.973333,0.0014 z"
     id="path2668" />
  <path
     style="fill:#00d455;stroke-width:0.00552427"
     d="m 20.113873,21.925185 v -0.01456 l 1.216721,-0.0034 c 0.669197,-0.0019 3.048846,-0.0048 5.288109,-0.0064 8.056292,-0.006 9.30617,-0.01673 9.960262,-0.08553 0.05469,-0.0058 0.114353,-0.01176 0.132583,-0.01334 0.03185,-0.0028 0.03217,-0.0027 0.0083,0.0025 -0.06623,0.01433 -0.423193,0.06124 -0.604908,0.0795 -0.110044,0.01106 -0.32311,0.02855 -0.483373,0.03968 -0.139827,0.0097 -1.097521,0.01093 -11.536061,0.01468 l -3.981619,0.0014 z"
     id="path2707" />
  <path
     style="fill:#00d455;stroke-width:0.00552427"
     d="m 20.113873,21.925142 v -0.0145 l 1.211197,-0.0034 c 0.666158,-0.0019 2.972472,-0.0048 5.125143,-0.0064 8.400193,-0.0064 9.577792,-0.01725 10.205927,-0.09391 0.07213,-0.0088 0.103009,-0.0097 0.06369,-0.0019 -0.100665,0.02001 -0.486094,0.06861 -0.696058,0.08777 -0.381353,0.03479 -0.345961,0.03368 -1.237437,0.03889 -0.454233,0.0027 -3.941361,0.0056 -7.749172,0.0064 l -6.923294,0.0016 z"
     id="path2746" />
  <path
     style="fill:#00d455;stroke-width:0.00552427"
     d="m 30.538174,21.892414 c 0.112094,-0.0054 0.34069,-0.0049 0.273452,5.65e-4 -0.02735,0.0022 -0.118082,0.0039 -0.201636,0.0037 -0.133625,-3.37e-4 -0.142273,-8.48e-4 -0.07182,-0.0042 z"
     id="path2785" />
  <path
     style="fill:#00d455;stroke-width:0.00552427"
     d="m 20.113873,21.926248 v -0.01563 l 0.946032,-0.0036 c 0.520317,-0.002 2.86392,-0.0058 5.208007,-0.0085 l 4.261976,-0.0049 -5.208007,0.0026 -5.208008,0.0026 v -0.481783 -0.481784 l 5.032612,0.003 c 2.767936,0.0017 5.03256,0.0014 5.032495,-5.31e-4 -6.6e-5,-0.002 -0.101364,-0.05514 -0.225114,-0.118181 -0.123748,-0.06304 -0.277137,-0.142217 -0.340862,-0.175958 -0.896901,-0.474885 -1.689312,-1.059907 -2.449569,-1.80847 -0.330539,-0.325453 -0.583469,-0.595684 -0.819714,-0.875781 l -0.05824,-0.06905 0.62686,-0.0014 0.626859,-0.0014 0.139137,0.139587 c 0.956858,0.95996 2.100406,1.721254 3.329403,2.216482 1.482677,0.59745 3.145423,0.831649 4.842024,0.682003 1.889671,-0.166676 3.666037,-0.840993 5.148622,-1.954439 0.05469,-0.04107 0.116216,-0.088 0.136725,-0.10428 l 0.03729,-0.0296 v 0.585597 0.585597 l -0.164347,0.109542 c -0.186118,0.124053 -0.338629,0.218653 -0.523425,0.32467 -0.85766,0.492038 -1.883909,0.91311 -2.792519,1.145775 -0.277754,0.07112 -0.786616,0.177535 -0.977796,0.204473 -0.457663,0.06449 -1.423449,0.08442 -4.543714,0.09378 -1.245717,0.0037 -1.288762,0.0041 -0.516519,0.0049 0.463348,4.76e-4 1.276245,-0.0015 1.806437,-0.0045 2.018296,-0.01119 2.732543,-0.02864 3.162645,-0.07726 0.05165,-0.0058 0.108829,-0.01192 0.127059,-0.0135 0.03193,-0.0028 0.03224,-0.0027 0.0083,0.0025 -0.06941,0.01511 -0.44267,0.06486 -0.638053,0.08504 -0.121867,0.01259 -0.329669,0.02951 -0.480612,0.03913 -0.166252,0.0106 -1.438274,0.01274 -9.668857,0.01625 l -5.857109,0.0025 z"
     id="path2824" />
  <path
     style="fill:#00d455;stroke-width:0.00552427"
     d="m 20.113873,21.926602 v -0.01598 l 0.946032,-0.0036 c 0.520317,-0.002 2.67499,-0.0057 4.788162,-0.0084 l 3.842131,-0.0048 -4.788162,0.0028 -4.788163,0.0028 v -0.482077 -0.482077 l 5.02985,0.003 c 2.766417,0.0017 5.029849,10e-4 5.029849,-0.0014 0,-0.0024 -0.02548,-0.01746 -0.05662,-0.03338 C 29.660691,20.670291 29.562326,20.618611 29.383601,20.518249 28.679483,20.122856 28.05716,19.667324 27.419723,19.080715 27.286035,18.957688 26.851189,18.524685 26.726369,18.390301 26.59348,18.247228 26.43883,18.072345 26.30991,17.919356 l -0.02677,-0.03176 h 0.630016 0.630015 l 0.06732,0.07134 c 0.06896,0.07307 0.309396,0.304973 0.427951,0.412747 0.788028,0.716367 1.705938,1.317333 2.656299,1.739111 1.634292,0.725311 3.479019,0.99714 5.378754,0.792582 0.931063,-0.100253 1.884635,-0.34177 2.743579,-0.69488 0.394269,-0.162084 0.783783,-0.351666 1.145509,-0.557535 0.399064,-0.22712 0.855334,-0.532222 1.172526,-0.784052 l 0.03729,-0.02961 v 0.585402 0.585402 l -0.147774,0.09896 c -0.170236,0.114008 -0.305037,0.198701 -0.465502,0.292466 -0.884654,0.516935 -1.954524,0.958831 -2.897399,1.196734 -0.270887,0.06835 -0.765812,0.171097 -0.947412,0.196685 -0.24825,0.03498 -0.718705,0.0585 -1.433549,0.07168 -0.176547,0.0033 -0.199084,0.0044 -0.102199,0.005 0.135007,9.31e-4 0.500473,-0.0067 0.751301,-0.01567 0.320828,-0.01148 0.522249,-0.02471 0.717902,-0.04715 0.206245,-0.02366 0.171054,-0.0145 -0.08537,0.02221 -0.296712,0.04248 -0.600166,0.0733 -0.924726,0.09393 -0.170355,0.01083 -1.419643,0.01306 -9.373897,0.01675 l -6.149896,0.0029 z m 9.76277,-0.03243 c -0.01291,-0.0012 -0.03404,-0.0012 -0.04696,0 -0.01291,0.0012 -0.0023,0.0021 0.02348,0.0021 0.02583,0 0.03639,-9.52e-4 0.02348,-0.0021 z m 2.505257,-0.0056 c -0.224078,-7.99e-4 -0.590752,-7.99e-4 -0.81483,0 -0.224079,7.99e-4 -0.04074,0.0015 0.407415,0.0015 0.448156,0 0.631493,-6.54e-4 0.407415,-0.0015 z m 1.846488,-0.0068 c 0.209173,-0.0021 -0.01318,-0.0026 -0.497185,-0.0012 -0.481578,0.0014 -0.876633,0.0035 -0.877899,0.0046 -0.0036,0.0032 0.957438,8.31e-4 1.375084,-0.0034 z m 0.714012,-0.0098 c -0.06153,-8.89e-4 -0.162207,-8.89e-4 -0.223733,0 -0.06153,8.89e-4 -0.01119,0.0016 0.111866,0.0016 0.123053,0 0.173393,-7.28e-4 0.111867,-0.0016 z"
     id="path2863" />
  <path
     style="fill:#00d455;stroke-width:0.00552427"
     d="m 20.113873,21.925966 v -0.0167 l 0.238925,-8.11e-4 c 0.131409,-4.46e-4 1.177361,-0.0024 2.324337,-0.0044 l 2.085413,-0.0036 -2.324337,-0.0011 -2.324338,-0.0011 v -0.480608 -0.480609 l 5.031119,-0.0014 5.031119,-0.0014 -0.193238,-0.09891 C 29.409715,20.541932 29.142787,20.390004 28.777397,20.149192 28.143738,19.731577 27.612329,19.289464 26.994315,18.665733 26.738152,18.407202 26.548528,18.201795 26.357559,17.97598 l -0.07241,-0.08563 0.627835,-0.0014 0.627835,-0.0014 0.168711,0.167894 c 0.287077,0.285688 0.508704,0.4842 0.812288,0.727573 0.475048,0.380829 1.020347,0.740783 1.549558,1.022868 1.013276,0.540105 2.108099,0.893712 3.278655,1.058942 1.076659,0.151976 2.229184,0.137393 3.300753,-0.04177 1.620542,-0.270943 3.135615,-0.924695 4.420798,-1.907567 l 0.100818,-0.0771 v 0.58521 0.58521 l -0.139488,0.09307 c -0.171144,0.114188 -0.271526,0.177799 -0.421651,0.267199 -0.938877,0.559102 -2.123846,1.040083 -3.134599,1.27234 -0.135156,0.03106 -0.535521,0.113893 -0.625928,0.129504 -0.26834,0.04634 -0.557458,0.06756 -1.133552,0.08319 -0.118496,0.0032 -0.240306,0.0067 -0.270689,0.0077 -0.03038,9.93e-4 0.03425,8.4e-4 0.143631,-3.41e-4 0.398319,-0.0043 0.78473,-0.02426 1.055804,-0.05452 0.191637,-0.0214 0.17615,-0.01554 -0.04486,0.01697 -0.257554,0.03788 -0.519703,0.06663 -0.834165,0.09148 -0.13137,0.01038 -0.212242,0.01174 -0.947412,0.01588 -0.44208,0.0025 -3.931694,0.0061 -7.754697,0.008 l -6.950915,0.0035 z m 7.285578,-0.0319 c -0.384866,-7.83e-4 -1.01629,-7.83e-4 -1.403165,0 -0.386874,7.83e-4 -0.07198,0.0014 0.699757,0.0014 0.771741,0 1.088274,-6.41e-4 0.703408,-0.0014 z m 0.866866,6.1e-5 c -0.01747,-0.0011 -0.04606,-0.0011 -0.06353,0 -0.01747,0.0011 -0.0032,0.002 0.03176,0.002 0.03494,0 0.04924,-8.97e-4 0.03176,-0.002 z m 0.11601,1.25e-4 c -0.0084,-0.0013 -0.02203,-0.0013 -0.03038,0 -0.0084,0.0013 -0.0015,0.0023 0.01519,0.0023 0.01671,0 0.02355,-0.001 0.01519,-0.0023 z m 1.477743,2.99e-4 c -0.0038,-0.0015 -0.01001,-0.0015 -0.01381,0 -0.0038,0.0015 -6.9e-4,0.0028 0.0069,0.0028 0.0076,0 0.0107,-0.0013 0.0069,-0.0028 z m 2.342291,-0.006 c -0.125332,-8.27e-4 -0.330421,-8.27e-4 -0.455752,0 -0.125332,8.28e-4 -0.02279,0.0015 0.227876,0.0015 0.250664,0 0.353208,-6.78e-4 0.227876,-0.0015 z m 1.442249,-0.0055 c -0.128142,-8.26e-4 -0.339446,-8.26e-4 -0.469563,0 -0.130117,8.26e-4 -0.02527,0.0015 0.232986,0.0015 0.25826,0 0.364719,-6.75e-4 0.236577,-0.0015 z m 0.577214,-0.0055 c -0.04463,-9.27e-4 -0.119206,-9.29e-4 -0.165728,-5e-6 -0.04652,9.26e-4 -0.01001,0.0017 0.08114,0.0017 0.09115,2e-6 0.129215,-7.55e-4 0.08459,-0.0017 z m 0.673619,-0.0055 c -0.0357,-9.62e-4 -0.09412,-9.62e-4 -0.12982,0 -0.0357,9.62e-4 -0.0065,0.0017 0.06491,0.0017 0.0714,0 0.100611,-7.87e-4 0.06491,-0.0017 z m 0.422919,-0.0055 c -0.03401,-9.68e-4 -0.09119,-9.71e-4 -0.127058,-6e-6 -0.03587,9.64e-4 -0.008,0.0018 0.06184,0.0018 0.06988,4e-6 0.09923,-7.85e-4 0.06522,-0.0018 z"
     id="path2902" />
  <path
     style="fill:#00d455;stroke-width:0.00552427"
     d="m 34.478781,21.938265 c 0.14835,-8.18e-4 0.389484,-8.18e-4 0.535854,10e-7 0.146369,8.18e-4 0.02499,0.0015 -0.269728,0.0015 -0.29472,0 -0.414477,-6.7e-4 -0.266126,-0.0015 z"
     id="path2978" />
  <path
     style="fill:#00d455;stroke-width:0.00552427"
     d="m 34.71038,21.938311 c 0.02051,-0.0011 0.05407,-0.0011 0.07458,0 0.02051,0.0011 0.0037,0.0019 -0.03729,0.0019 -0.04102,0 -0.0578,-8.69e-4 -0.03729,-0.0019 z"
     id="path3017" />
  <path
     style="fill:#00d455;stroke-width:0.00552427"
     d="m 34.636097,21.943808 c 0.0313,-9.87e-4 0.08102,-9.83e-4 0.110485,9e-6 0.02946,9.91e-4 0.0038,0.0018 -0.05692,0.0018 -0.06077,-5e-6 -0.08487,-8.16e-4 -0.05357,-0.0018 z"
     id="path3056" />
  <path
     style="fill:#00d455;stroke-width:0.00552427"
     d="m 34.718667,21.944273 c 0.0038,-0.0015 0.01001,-0.0015 0.01381,0 0.0038,0.0015 6.91e-4,0.0028 -0.0069,0.0028 -0.0076,0 -0.0107,-0.0013 -0.0069,-0.0028 z"
     id="path3095" />
  <path
     style="fill:#00d455;stroke-width:0.00552427"
     d=""
     id="path3134" />
  <path
     style="fill:#00d455;stroke-width:0.00552427"
     d="m 34.663424,21.943935 c 0.0099,-0.0012 0.02603,-0.0012 0.03591,0 0.0099,0.0012 0.0018,0.0022 -0.01795,0.0022 -0.01975,0 -0.02783,-0.001 -0.01795,-0.0022 z"
     id="path3173" />
  <path
     style="fill:#00d455;stroke-width:0.00552427"
     d=""
     id="path3212" />
  <path
     style="fill:#00d455;stroke-width:0.00552427"
     d=""
     id="path3251" />
  <path
     style="fill:#00d455;stroke-width:0.00552427"
     d="m 34.55432,21.941756 c -0.141221,-0.0066 -0.143734,-0.0085 -0.01243,-0.0095 0.101057,-7.61e-4 0.117391,2.69e-4 0.117391,0.0074 0,0.0046 -0.0019,0.0079 -0.0041,0.0075 -0.0023,-4.56e-4 -0.04765,-0.0029 -0.100818,-0.0053 z"
     id="path3290" />
  <path
     style="fill:#00d455;stroke-width:0.00552427"
     d="m 20.113873,21.927206 v -0.01703 l 0.440561,-0.0023 c 0.242308,-0.0013 1.160036,-0.0027 2.039396,-0.0032 0.879359,-5.04e-4 1.600069,-0.0022 1.601578,-0.0037 0.0015,-0.0015 -0.916219,-0.0027 -2.039396,-0.0027 h -2.042139 v -0.480608 -0.480609 l 5.030469,-0.0014 5.030469,-0.0014 -0.27269,-0.140349 c -0.55251,-0.284367 -0.829578,-0.445052 -1.214578,-0.704388 -0.597554,-0.402513 -1.099099,-0.824227 -1.693279,-1.423758 -0.256994,-0.259308 -0.408776,-0.423271 -0.618057,-0.667656 l -0.09225,-0.107723 0.628357,-0.0014 0.628358,-0.0014 0.171544,0.170168 c 0.298428,0.296033 0.498564,0.475004 0.81236,0.726452 0.701816,0.562372 1.478168,1.029691 2.287049,1.37667 1.480891,0.635246 3.142733,0.901759 4.855834,0.778742 1.861009,-0.133639 3.596276,-0.745296 5.090617,-1.794371 0.102618,-0.07204 0.299509,-0.217483 0.374269,-0.27647 l 0.04005,-0.0316 v 0.585807 0.585808 l -0.09253,0.06207 c -0.393347,0.263841 -0.688453,0.436 -1.120046,0.653413 -0.856712,0.431562 -1.781385,0.767316 -2.593646,0.941766 -0.348677,0.07489 -0.494699,0.103641 -0.635291,0.125105 -0.07732,0.0118 -0.07191,0.01305 0.0221,0.0051 0.05359,-0.0045 -0.11962,0.02408 -0.265165,0.04381 -0.234755,0.03182 -0.423442,0.05143 -0.754063,0.07838 -0.08733,0.0071 -0.213446,0.0095 -0.601792,0.01141 -0.33148,0.0016 -0.488726,0.0042 -0.483374,0.008 0.0054,0.0038 -0.01579,0.0045 -0.06607,0.0023 -0.09726,-0.0043 -3.639546,-0.0041 -9.625236,4.79e-4 l -4.843406,0.0037 z m 6.492401,-0.03299 c -0.0099,-0.0012 -0.02603,-0.0012 -0.03591,0 -0.0099,0.0012 -0.0018,0.0022 0.01795,0.0022 0.01975,0 0.02783,-10e-4 0.01795,-0.0022 z m 5.45798,-0.0057 c -0.03722,-9.56e-4 -0.09812,-9.56e-4 -0.135344,0 -0.03722,9.56e-4 -0.0068,0.0017 0.06767,0.0017 0.07444,0 0.104892,-7.82e-4 0.06767,-0.0017 z m 1.478125,-0.0055 c -0.07195,-8.72e-4 -0.191275,-8.72e-4 -0.265165,-2e-6 -0.07389,8.71e-4 -0.01502,0.0016 0.130819,0.0016 0.145841,1e-6 0.206296,-7.11e-4 0.134346,-0.0016 z m 0.659768,-0.0055 c -0.01595,-0.0011 -0.04205,-0.0011 -0.058,0 -0.01595,0.0011 -0.0029,0.002 0.029,0.002 0.0319,0 0.04495,-9.14e-4 0.029,-0.002 z m 0.657389,-0.0055 c -0.01595,-0.0011 -0.04205,-0.0011 -0.05801,0 -0.01595,0.0011 -0.0029,0.002 0.029,0.002 0.0319,0 0.04495,-9.13e-4 0.029,-0.002 z m 0.428131,-0.0055 c -0.02051,-0.0011 -0.05407,-0.0011 -0.07458,0 -0.02051,0.0011 -0.0037,0.0019 0.03729,0.0019 0.04102,0 0.0578,-8.7e-4 0.03729,-0.0019 z m 0.281738,-0.0055 c -0.02355,-10e-4 -0.06208,-10e-4 -0.08563,0 -0.02355,0.001 -0.0043,0.0019 0.04281,0.0019 0.04709,0 0.06636,-8.47e-4 0.04281,-0.0019 z m 0.215446,-0.0055 c -0.02659,-0.001 -0.07009,-0.001 -0.09668,0 -0.02658,10e-4 -0.0048,0.0018 0.04834,0.0018 0.05317,0 0.07492,-8.28e-4 0.04834,-0.0018 z m 0.382556,-0.01255 c 0.07539,-0.0049 -0.09158,-8.14e-4 -0.240306,0.0059 -0.0749,0.0034 -0.06651,0.0037 0.04143,0.0012 0.07444,-0.0017 0.163933,-0.0049 0.198874,-0.0072 z m 0.19335,-0.01065 c 0.04134,-0.0036 0.04299,-0.0041 0.01381,-0.0044 -0.01823,-1.3e-4 -0.05676,0.0016 -0.08563,0.0038 -0.04971,0.0038 -0.05044,0.004 -0.01381,0.0044 0.02127,1.9e-4 0.0598,-0.0015 0.08563,-0.0038 z m 0.100817,-0.0098 c -0.0099,-0.0012 -0.02603,-0.0012 -0.03591,0 -0.0099,0.0012 -0.0018,0.0022 0.01795,0.0022 0.01975,0 0.02783,-10e-4 0.01795,-0.0022 z m 0.06353,-0.0055 c -0.0084,-0.0013 -0.02203,-0.0013 -0.03038,0 -0.0084,0.0013 -0.0015,0.0023 0.01519,0.0023 0.01671,0 0.02355,-0.001 0.01519,-0.0023 z m 0.05808,-0.0055 c -0.0068,-0.0013 -0.01922,-0.0013 -0.02762,-7.5e-5 -0.0084,0.0013 -0.0028,0.0023 0.01235,0.0024 0.01519,4.5e-5 0.02206,-9.97e-4 0.01527,-0.0023 z m 0.04964,-0.0055 c -0.0068,-0.0013 -0.01802,-0.0013 -0.02486,0 -0.0068,0.0013 -0.0012,0.0024 0.01243,0.0024 0.01367,0 0.01927,-0.0011 0.01243,-0.0024 z"
     id="path3329" />
  <path
     style="fill:#00d455;stroke-width:0.00552427"
     d="m 33.010286,21.942015 c 0.704897,-0.0018 -1.908429,-0.0021 -5.807391,-8.31e-4 l -7.089022,0.0024 v -0.01714 -0.01714 l 0.147775,-8.14e-4 c 0.08127,-4.47e-4 0.946998,-0.0024 1.923827,-0.0044 l 1.776054,-0.0036 -1.923828,-0.0011 -1.923828,-0.0011 v -0.480608 -0.480609 l 5.030335,-0.0014 5.030334,-0.0014 -0.203502,-0.104477 C 29.683583,20.682173 29.564565,20.619411 29.422552,20.540513 28.76851,20.177152 28.163438,19.746673 27.596499,19.241364 27.416446,19.080884 27.2947,18.964751 27.049224,18.71932 26.743035,18.413186 26.603021,18.263206 26.373329,17.995315 l -0.08999,-0.104961 0.62832,-0.0014 0.628321,-0.0014 0.177584,0.175419 c 0.247059,0.244045 0.425014,0.406506 0.650166,0.593556 0.873756,0.725891 1.84441,1.292127 2.872032,1.675415 1.403554,0.523505 2.948016,0.727675 4.532665,0.599195 1.966172,-0.159413 3.812186,-0.866952 5.337853,-2.045889 l 0.06217,-0.04804 -0.0014,0.586676 -0.0014,0.586676 -0.11601,0.07806 c -0.223052,0.150078 -0.411158,0.266333 -0.635291,0.392625 -0.893938,0.503706 -1.966148,0.930398 -2.879805,1.146033 -0.219595,0.05183 -0.617343,0.133421 -0.793836,0.162847 l -0.04972,0.0083 0.04419,-0.0022 c 0.03823,-0.0019 0.03151,-5.6e-5 -0.04972,0.01379 -0.241015,0.04108 -0.559839,0.077 -0.986083,0.111085 -0.06723,0.0054 -0.768016,0.01559 -1.157335,0.01686 -0.0745,2.45e-4 -0.09879,0.0016 -0.07458,0.0042 0.01975,0.0021 -0.589302,0.0037 -1.353447,0.0035 l -1.389354,-4.1e-4 1.281631,-0.0032 z m 0.45742,-0.05896 c -0.02795,-10e-4 -0.07518,-10e-4 -0.104961,-1.1e-5 -0.02978,9.96e-4 -0.0069,0.0018 0.05081,0.0018 0.05773,5e-6 0.08209,-8.09e-4 0.05415,-0.0018 z m 1.375257,-0.01084 c -0.0068,-0.0013 -0.01802,-0.0013 -0.02486,0 -0.0068,0.0013 -0.0012,0.0024 0.01243,0.0024 0.01367,0 0.01927,-0.0011 0.01243,-0.0024 z m 0.428131,-0.0056 c -0.01139,-0.0012 -0.03004,-0.0012 -0.04143,0 -0.01139,0.0012 -0.0021,0.0022 0.02072,0.0022 0.02279,0 0.03211,-9.75e-4 0.02072,-0.0022 z m 0.278976,-0.0055 c -0.01291,-0.0012 -0.03404,-0.0012 -0.04696,0 -0.01291,0.0012 -0.0023,0.0021 0.02348,0.0021 0.02583,0 0.03639,-9.51e-4 0.02348,-0.0021 z m 0.215446,-0.0056 c -0.01595,-0.0011 -0.04205,-0.0011 -0.05801,0 -0.01595,0.0011 -0.0029,0.002 0.029,0.002 0.0319,0 0.04495,-9.13e-4 0.029,-0.002 z m 0.190588,-0.0055 c -0.01443,-0.0011 -0.03805,-0.0011 -0.05248,0 -0.01443,0.0011 -0.0026,0.0021 0.02624,0.0021 0.02887,0 0.04067,-9.31e-4 0.02624,-0.0021 z m 0.12982,-0.0055 c -0.01595,-0.0011 -0.04205,-0.0011 -0.05801,0 -0.01595,0.0011 -0.0029,0.002 0.029,0.002 0.0319,0 0.04495,-9.13e-4 0.029,-0.002 z m 0.08846,-0.0053 c -0.0068,-0.0013 -0.01922,-0.0013 -0.02762,-7.5e-5 -0.0084,0.0013 -0.0028,0.0023 0.01235,0.0024 0.01519,4.4e-5 0.02206,-9.98e-4 0.01527,-0.0023 z m 0.132507,-0.0056 c -0.0099,-0.0012 -0.02603,-0.0012 -0.03591,0 -0.0099,0.0012 -0.0018,0.0022 0.01795,0.0022 0.01975,0 0.02783,-0.001 0.01795,-0.0022 z m 0.07468,-0.0055 c -0.0083,-0.0013 -0.02322,-0.0013 -0.03314,-5.7e-5 -0.0099,0.0012 -0.0031,0.0023 0.01509,0.0023 0.01823,3.3e-5 0.02635,-9.75e-4 0.01805,-0.0022 z m 0.07448,-0.0055 c -0.0068,-0.0013 -0.01802,-0.0013 -0.02486,0 -0.0068,0.0013 -0.0012,0.0024 0.01243,0.0024 0.01367,0 0.01926,-0.0011 0.01243,-0.0024 z m 0.06353,-0.0054 c -0.0053,-0.0014 -0.01402,-0.0014 -0.01933,0 -0.0053,0.0014 -9.66e-4,0.0025 0.0097,0.0025 0.01063,0 0.01498,-0.0011 0.0097,-0.0025 z m 0.05811,-0.0053 c -0.0037,-0.0015 -0.0112,-0.0016 -0.01657,-2.04e-4 -0.0054,0.0014 -0.0023,0.0026 0.0068,0.0028 0.0091,1.13e-4 0.01351,-0.001 0.0098,-0.0025 z m 0.05524,-0.0055 c -0.0037,-0.0015 -0.0112,-0.0016 -0.01657,-2.05e-4 -0.0054,0.0014 -0.0023,0.0026 0.0068,0.0028 0.0091,1.12e-4 0.01351,-0.001 0.0098,-0.0025 z m 0.05779,-0.0052 c -0.0018,-0.0018 -0.0066,-0.002 -0.01059,-4.36e-4 -0.0044,0.0018 -0.0031,0.0031 0.0033,0.0033 0.0058,2.39e-4 0.0091,-0.0011 0.0073,-0.0029 z"
     id="path3405" />
  <path
     style="fill:#00d455;stroke-width:0.00552427"
     d="m 20.113873,21.926188 v -0.01693 l 0.164347,-8.09e-4 c 0.09039,-4.46e-4 0.85792,-0.0024 1.705619,-0.0044 l 1.541272,-0.0036 -1.705619,-0.0011 -1.705619,-0.0011 V 21.417601 20.93699 h 5.027414 c 3.481207,0 5.02632,-0.0018 5.02386,-0.0057 -0.002,-0.0032 -0.0081,-0.0043 -0.01367,-0.0025 -0.02237,0.0071 -0.432808,-0.197571 -0.740252,-0.369138 -0.656656,-0.36644 -1.293317,-0.81411 -1.847869,-1.299333 -0.409337,-0.358162 -0.827601,-0.784202 -1.201153,-1.223485 -0.05555,-0.06532 -0.105846,-0.125569 -0.111769,-0.133877 l -0.01077,-0.01511 0.650263,-1.27e-4 0.650264,-1.27e-4 0.160738,0.158875 c 0.309965,0.306369 0.509642,0.485137 0.815365,0.729984 1.451971,1.162852 3.114442,1.867509 4.96632,2.105033 0.463707,0.05948 0.87734,0.08506 1.372781,0.08492 0.918942,-2.63e-4 1.737424,-0.09807 2.582597,-0.308632 1.322077,-0.329367 2.523755,-0.903943 3.611493,-1.726816 l 0.122915,-0.09298 v 0.585253 0.585253 l -0.08424,0.05762 c -0.936367,0.640477 -2.22091,1.217842 -3.382235,1.520215 -0.199788,0.05202 -0.681059,0.155673 -0.897694,0.193342 -0.08084,0.01405 -0.09738,0.01814 -0.06629,0.01638 l 0.04143,-0.0024 -0.04143,0.0082 c -0.148078,0.02924 -0.575387,0.08097 -0.861786,0.104326 -0.09267,0.0076 -0.183406,0.01499 -0.201636,0.01653 -0.131227,0.01103 -1.703258,0.0143 -8.285027,0.01723 l -7.279609,0.0032 z m 15.149039,-0.05922 c -0.0037,-0.0015 -0.0112,-0.0016 -0.01657,-2.05e-4 -0.0054,0.0014 -0.0023,0.0026 0.0068,0.0028 0.0091,1.12e-4 0.01351,-10e-4 0.0098,-0.0025 z m 0.273412,-0.0057 c -0.0053,-0.0014 -0.01523,-0.0014 -0.0221,-1.12e-4 -0.0069,0.0013 -0.0025,0.0025 0.0096,0.0025 0.01215,6.2e-5 0.01778,-10e-4 0.0125,-0.0024 z m 0.218144,-0.0057 c -0.0099,-0.0012 -0.02603,-0.0012 -0.03591,0 -0.0099,0.0012 -0.0018,0.0022 0.01795,0.0022 0.01975,0 0.02783,-0.001 0.01795,-0.0022 z m 0.187901,-0.0054 c -0.0068,-0.0013 -0.01922,-0.0013 -0.02762,-7.5e-5 -0.0084,0.0013 -0.0028,0.0023 0.01235,0.0024 0.01519,4.4e-5 0.02206,-9.97e-4 0.01527,-0.0023 z m 0.132506,-0.0056 c -0.0099,-0.0012 -0.02603,-0.0012 -0.03591,0 -0.0099,0.0012 -0.0018,0.0022 0.01795,0.0022 0.01975,0 0.02783,-0.001 0.01795,-0.0022 z m 0.09391,-0.0052 c -0.0038,-0.0015 -0.01001,-0.0015 -0.01381,0 -0.0038,0.0015 -6.9e-4,0.0028 0.0069,0.0028 0.0076,0 0.0107,-0.0013 0.0069,-0.0028 z m 0.129885,-0.0057 c -0.0053,-0.0014 -0.01523,-0.0014 -0.0221,-1.12e-4 -0.0069,0.0013 -0.0026,0.0025 0.0096,0.0025 0.01215,6.1e-5 0.01778,-10e-4 0.01249,-0.0024 z m 0.07728,-0.0055 c -0.0053,-0.0014 -0.01402,-0.0014 -0.01933,0 -0.0053,0.0014 -9.66e-4,0.0025 0.0097,0.0025 0.01063,0 0.01498,-0.0011 0.0097,-0.0025 z m 0.07458,-0.0054 c -0.0038,-0.0015 -0.01001,-0.0015 -0.01381,0 -0.0038,0.0015 -6.9e-4,0.0028 0.0069,0.0028 0.0076,0 0.0107,-0.0013 0.0069,-0.0028 z m 0.06629,-0.0055 c -0.0038,-0.0015 -0.01001,-0.0015 -0.01381,0 -0.0038,0.0015 -6.91e-4,0.0028 0.0069,0.0028 0.0076,0 0.0107,-0.0013 0.0069,-0.0028 z m 0.05789,-0.0052 c -0.0018,-0.0018 -0.0066,-0.002 -0.01059,-4.35e-4 -0.0044,0.0018 -0.0031,0.0031 0.0033,0.0033 0.0058,2.4e-4 0.0091,-0.0011 0.0072,-0.0029 z m 0.05524,-0.0055 c -0.0018,-0.0018 -0.0066,-0.002 -0.01059,-4.36e-4 -0.0044,0.0018 -0.0031,0.0031 0.0033,0.0033 0.0058,2.4e-4 0.0091,-0.0011 0.0073,-0.0029 z m -6.914892,-1.107041 c 0,-0.003 -0.0026,-0.0055 -0.0059,-0.0055 -0.0032,0 -0.0043,0.0025 -0.0024,0.0055 0.0019,0.003 0.0045,0.0055 0.0058,0.0055 0.0013,0 0.0024,-0.0025 0.0024,-0.0055 z m -0.248593,-0.132582 c 0,-0.003 -0.0026,-0.0055 -0.0058,-0.0055 -0.0032,0 -0.0043,0.0025 -0.0024,0.0055 0.0019,0.003 0.0045,0.0055 0.0058,0.0055 0.0013,0 0.0024,-0.0025 0.0024,-0.0055 z m -0.04972,-0.02762 c 0,-0.003 -0.0026,-0.0055 -0.0059,-0.0055 -0.0032,0 -0.0043,0.0025 -0.0024,0.0055 0.0019,0.003 0.0045,0.0055 0.0059,0.0055 0.0013,0 0.0024,-0.0025 0.0024,-0.0055 z m -0.04972,-0.02762 c 0,-0.003 -0.0026,-0.0055 -0.0059,-0.0055 -0.0032,0 -0.0043,0.0025 -0.0024,0.0055 0.0019,0.003 0.0045,0.0055 0.0058,0.0055 0.0013,0 0.0024,-0.0025 0.0024,-0.0055 z m -0.07734,-0.04419 c 0,-0.003 -0.0026,-0.0055 -0.0059,-0.0055 -0.0032,0 -0.0043,0.0025 -0.0024,0.0055 0.0019,0.003 0.0045,0.0055 0.0058,0.0055 0.0013,0 0.0024,-0.0025 0.0024,-0.0055 z m -0.392224,-0.237544 c 0,-0.003 -0.0026,-0.0055 -0.0058,-0.0055 -0.0032,0 -0.0043,0.0025 -0.0024,0.0055 0.0019,0.003 0.0045,0.0055 0.0059,0.0055 0.0013,0 0.0024,-0.0025 0.0024,-0.0055 z m -0.01657,-0.01105 c 0,-0.003 -0.0026,-0.0055 -0.0059,-0.0055 -0.0032,0 -0.0043,0.0025 -0.0024,0.0055 0.0019,0.003 0.0045,0.0055 0.0058,0.0055 0.0013,0 0.0024,-0.0025 0.0024,-0.0055 z m -0.07734,-0.04972 c 0,-0.003 -0.0026,-0.0055 -0.0059,-0.0055 -0.0032,0 -0.0043,0.0025 -0.0024,0.0055 0.0019,0.003 0.0045,0.0055 0.0059,0.0055 0.0013,0 0.0024,-0.0025 0.0024,-0.0055 z m -0.01657,-0.01105 c 0,-0.003 -0.0026,-0.0055 -0.0058,-0.0055 -0.0032,0 -0.0043,0.0025 -0.0024,0.0055 0.0019,0.003 0.0045,0.0055 0.0058,0.0055 0.0013,0 0.0024,-0.0025 0.0024,-0.0055 z m -0.01657,-0.01105 c 0,-0.003 -0.0026,-0.0055 -0.0058,-0.0055 -0.0032,0 -0.0043,0.0025 -0.0024,0.0055 0.0019,0.003 0.0045,0.0055 0.0058,0.0055 0.0013,0 0.0024,-0.0025 0.0024,-0.0055 z m -0.06629,-0.04419 c 0,-0.003 -0.0026,-0.0055 -0.0058,-0.0055 -0.0032,0 -0.0043,0.0025 -0.0024,0.0055 0.0019,0.003 0.0045,0.0055 0.0059,0.0055 0.0013,0 0.0024,-0.0025 0.0024,-0.0055 z m -0.01657,-0.01105 c 0,-0.003 -0.0026,-0.0055 -0.0059,-0.0055 -0.0032,0 -0.0043,0.0025 -0.0024,0.0055 0.0019,0.003 0.0045,0.0055 0.0058,0.0055 0.0013,0 0.0024,-0.0025 0.0024,-0.0055 z m -0.01657,-0.01105 c 0,-0.003 -0.0026,-0.0055 -0.0058,-0.0055 -0.0032,0 -0.0043,0.0025 -0.0024,0.0055 0.0019,0.003 0.0045,0.0055 0.0059,0.0055 0.0013,0 0.0024,-0.0025 0.0024,-0.0055 z m -0.01657,-0.01105 c 0,-0.003 -0.0026,-0.0055 -0.0058,-0.0055 -0.0032,0 -0.0043,0.0025 -0.0024,0.0055 0.0019,0.003 0.0045,0.0055 0.0058,0.0055 0.0013,0 0.0024,-0.0025 0.0024,-0.0055 z m -0.01657,-0.01105 c 0,-0.003 -0.0026,-0.0055 -0.0059,-0.0055 -0.0032,0 -0.0043,0.0025 -0.0024,0.0055 0.0019,0.003 0.0045,0.0055 0.0058,0.0055 0.0013,0 0.0024,-0.0025 0.0024,-0.0055 z m -0.05524,-0.03867 c 0,-0.003 -0.0026,-0.0055 -0.0058,-0.0055 -0.0032,0 -0.0043,0.0025 -0.0024,0.0055 0.0019,0.003 0.0045,0.0055 0.0058,0.0055 0.0013,0 0.0024,-0.0025 0.0024,-0.0055 z m -0.01657,-0.01105 c 0,-0.003 -0.0026,-0.0055 -0.0059,-0.0055 -0.0032,0 -0.0043,0.0025 -0.0024,0.0055 0.0019,0.003 0.0045,0.0055 0.0059,0.0055 0.0013,0 0.0024,-0.0025 0.0024,-0.0055 z m -0.05524,-0.03867 c 0,-0.003 -0.0026,-0.0055 -0.0058,-0.0055 -0.0032,0 -0.0043,0.0025 -0.0024,0.0055 0.0019,0.003 0.0045,0.0055 0.0059,0.0055 0.0013,0 0.0024,-0.0025 0.0024,-0.0055 z m -0.03867,-0.02762 c 0,-0.003 -0.0026,-0.0055 -0.0058,-0.0055 -0.0032,0 -0.0043,0.0025 -0.0024,0.0055 0.0019,0.003 0.0045,0.0055 0.0059,0.0055 0.0013,0 0.0024,-0.0025 0.0024,-0.0055 z m -0.03869,-0.0277 c 0,-0.003 -0.0026,-0.0055 -0.0059,-0.0055 -0.0032,0 -0.0043,0.0025 -0.0024,0.0055 0.0019,0.003 0.0045,0.0055 0.0059,0.0055 0.0013,0 0.0024,-0.0025 0.0024,-0.0055 z m -0.03867,-0.02762 c 0,-0.003 -0.0026,-0.0055 -0.0059,-0.0055 -0.0032,0 -0.0043,0.0025 -0.0024,0.0055 0.0019,0.003 0.0045,0.0055 0.0059,0.0055 0.0013,0 0.0024,-0.0025 0.0024,-0.0055 z m -0.0221,-0.01657 c 0,-0.003 -0.0026,-0.0055 -0.0059,-0.0055 -0.0032,0 -0.0043,0.0025 -0.0024,0.0055 0.0019,0.003 0.0045,0.0055 0.0058,0.0055 0.0013,0 0.0024,-0.0025 0.0024,-0.0055 z m -0.104962,-0.07734 c 0,-0.003 -0.0026,-0.0055 -0.0058,-0.0055 -0.0032,0 -0.0043,0.0025 -0.0024,0.0055 0.0019,0.003 0.0045,0.0055 0.0058,0.0055 0.0013,0 0.0024,-0.0025 0.0024,-0.0055 z m -0.07182,-0.05524 c 0,-0.003 -0.0026,-0.0055 -0.0058,-0.0055 -0.0032,0 -0.0043,0.0025 -0.0024,0.0055 0.0019,0.003 0.0045,0.0055 0.0059,0.0055 0.0013,0 0.0024,-0.0025 0.0024,-0.0055 z m -0.0221,-0.01657 c 0,-0.003 -0.0026,-0.0055 -0.0058,-0.0055 -0.0032,0 -0.0043,0.0025 -0.0024,0.0055 0.0019,0.003 0.0045,0.0055 0.0059,0.0055 0.0013,0 0.0024,-0.0025 0.0024,-0.0055 z m -0.04972,-0.03867 c 0,-0.003 -0.0026,-0.0055 -0.0058,-0.0055 -0.0032,0 -0.0043,0.0025 -0.0024,0.0055 0.0019,0.003 0.0045,0.0055 0.0059,0.0055 0.0013,0 0.0024,-0.0025 0.0024,-0.0055 z m -0.04972,-0.03867 c 0,-0.003 -0.0026,-0.0055 -0.0059,-0.0055 -0.0032,0 -0.0043,0.0025 -0.0024,0.0055 0.0019,0.003 0.0045,0.0055 0.0058,0.0055 0.0013,0 0.0024,-0.0025 0.0024,-0.0055 z m -0.02762,-0.0221 c 0,-0.003 -0.0026,-0.0055 -0.0059,-0.0055 -0.0032,0 -0.0043,0.0025 -0.0024,0.0055 0.0019,0.003 0.0045,0.0055 0.0059,0.0055 0.0013,0 0.0024,-0.0025 0.0024,-0.0055 z m -0.02762,-0.0221 c 0,-0.003 -0.0026,-0.0055 -0.0059,-0.0055 -0.0032,0 -0.0043,0.0025 -0.0024,0.0055 0.0019,0.003 0.0045,0.0055 0.0059,0.0055 0.0013,0 0.0024,-0.0025 0.0024,-0.0055 z m -0.02762,-0.0221 c 0,-0.003 -0.0026,-0.0055 -0.0059,-0.0055 -0.0032,0 -0.0043,0.0025 -0.0024,0.0055 0.0019,0.003 0.0045,0.0055 0.0059,0.0055 0.0013,0 0.0024,-0.0025 0.0024,-0.0055 z m -0.06077,-0.04972 c 0,-0.003 -0.0026,-0.0055 -0.0058,-0.0055 -0.0032,0 -0.0043,0.0025 -0.0024,0.0055 0.0019,0.003 0.0045,0.0055 0.0059,0.0055 0.0013,0 0.0024,-0.0025 0.0024,-0.0055 z m -0.03315,-0.02762 c 0,-0.003 -0.0026,-0.0055 -0.0058,-0.0055 -0.0032,0 -0.0043,0.0025 -0.0024,0.0055 0.0019,0.003 0.0045,0.0055 0.0059,0.0055 0.0013,0 0.0024,-0.0025 0.0024,-0.0055 z m -0.03016,-0.02725 c -0.002,-0.0032 -0.0063,-0.0059 -0.0095,-0.0059 -0.0037,0 -0.0032,0.0032 0.0011,0.0084 0.0076,0.0091 0.01435,0.0071 0.0084,-0.0025 z m -0.03315,-0.02762 c -0.002,-0.0032 -0.0063,-0.0059 -0.0095,-0.0059 -0.0037,0 -0.0032,0.0032 0.0011,0.0084 0.0076,0.0091 0.01435,0.0071 0.0084,-0.0025 z m -0.03614,-0.02799 c 0,-0.003 -0.0026,-0.0055 -0.0058,-0.0055 -0.0032,0 -0.0043,0.0025 -0.0024,0.0055 0.0019,0.003 0.0045,0.0055 0.0058,0.0055 0.0013,0 0.0024,-0.0025 0.0024,-0.0055 z m -0.03568,-0.03278 c -0.002,-0.0032 -0.0063,-0.0059 -0.0095,-0.0059 -0.0037,0 -0.0032,0.0032 0.0011,0.0084 0.0076,0.0091 0.01435,0.0071 0.0084,-0.0025 z m -0.04166,-0.03351 c 0,-0.003 -0.0026,-0.0055 -0.0059,-0.0055 -0.0032,0 -0.0043,0.0025 -0.0024,0.0055 0.0019,0.003 0.0045,0.0055 0.0058,0.0055 0.0013,0 0.0024,-0.0025 0.0024,-0.0055 z m -0.04121,-0.0383 c -0.002,-0.0032 -0.0063,-0.0059 -0.0095,-0.0059 -0.0037,0 -0.0032,0.0032 0.0011,0.0084 0.0076,0.0091 0.01435,0.0071 0.0084,-0.0025 z m -0.04419,-0.03867 c -0.002,-0.0032 -0.0063,-0.0059 -0.0095,-0.0059 -0.0037,0 -0.0032,0.0032 0.0011,0.0084 0.0076,0.0091 0.01435,0.0071 0.0084,-0.0025 z m -0.04707,-0.04167 c -0.0038,-0.0046 -0.0096,-0.0084 -0.01269,-0.0084 -0.0031,0 -0.0012,0.005 0.0043,0.01108 0.01142,0.01262 0.01904,0.0102 0.0084,-0.0027 z m -0.05524,-0.04972 c -0.0038,-0.0046 -0.0096,-0.0084 -0.01269,-0.0084 -0.0031,0 -0.0012,0.005 0.0043,0.01108 0.01142,0.01262 0.01904,0.0102 0.0084,-0.0027 z m -0.05808,-0.05258 c -0.0055,-0.0061 -0.01256,-0.01108 -0.01566,-0.01108 -0.0031,0 1.98e-4,0.0062 0.0073,0.01379 0.0152,0.01618 0.02311,0.01361 0.0083,-0.0027 z m -0.07182,-0.06629 c -0.0055,-0.0061 -0.01256,-0.01108 -0.01566,-0.01108 -0.0031,0 1.99e-4,0.0062 0.0073,0.01379 0.0152,0.01618 0.02311,0.01361 0.0083,-0.0027 z m -0.09404,-0.08852 c -0.01181,-0.0121 -0.02398,-0.022 -0.02703,-0.022 -0.0031,0 0.0054,0.01113 0.01873,0.02474 0.01336,0.01361 0.02552,0.02351 0.02703,0.022 0.0015,-0.0015 -0.0069,-0.01264 -0.01873,-0.02474 z m -0.259754,-0.254228 c -0.091,-0.09103 -0.167933,-0.165515 -0.170971,-0.165515 -0.003,0 0.07017,0.07572 0.162684,0.168277 0.09251,0.09255 0.169452,0.167034 0.170971,0.165515 0.0015,-0.0015 -0.07169,-0.07724 -0.162684,-0.168277 z m -0.254003,-0.259529 c -0.01181,-0.0121 -0.02398,-0.022 -0.02703,-0.022 -0.0031,0 0.0054,0.01113 0.01873,0.02474 0.01336,0.01361 0.02552,0.02351 0.02703,0.022 0.0015,-0.0015 -0.0069,-0.01265 -0.01873,-0.02474 z m -0.08826,-0.09378 c -0.0055,-0.0061 -0.01256,-0.01108 -0.01566,-0.01108 -0.0031,0 1.99e-4,0.0062 0.0073,0.01379 0.0152,0.01618 0.02311,0.01361 0.0083,-0.0027 z m -0.06345,-0.06895 c -0.0038,-0.0046 -0.0096,-0.0084 -0.01269,-0.0084 -0.0031,0 -0.0012,0.005 0.0043,0.01108 0.01142,0.01262 0.01904,0.0102 0.0084,-0.0027 z m -0.05524,-0.06077 c -0.0038,-0.0046 -0.0096,-0.0084 -0.01269,-0.0084 -0.0031,0 -0.0012,0.005 0.0043,0.01108 0.01142,0.01262 0.01904,0.0102 0.0084,-0.0027 z m -0.04684,-0.05225 c -0.002,-0.0032 -0.0063,-0.0059 -0.0095,-0.0059 -0.0037,0 -0.0032,0.0032 0.0011,0.0084 0.0076,0.0091 0.01435,0.0071 0.0084,-0.0025 z m -0.0442,-0.04972 c -0.002,-0.0032 -0.0063,-0.0059 -0.0095,-0.0059 -0.0037,0 -0.0032,0.0032 0.0011,0.0084 0.0076,0.0091 0.01435,0.0071 0.0084,-0.0025 z m -0.03867,-0.04419 c -0.002,-0.0032 -0.0063,-0.0059 -0.0095,-0.0059 -0.0037,0 -0.0032,0.0032 0.0011,0.0084 0.0076,0.0091 0.01435,0.0071 0.0084,-0.0025 z m -0.03867,-0.04419 c -0.002,-0.0032 -0.0063,-0.0059 -0.0095,-0.0059 -0.0037,0 -0.0032,0.0032 0.0011,0.0084 0.0076,0.0091 0.01435,0.0071 0.0084,-0.0025 z m -0.03061,-0.03351 c 0,-0.003 -0.0026,-0.0055 -0.0058,-0.0055 -0.0032,0 -0.0043,0.0025 -0.0024,0.0055 0.0019,0.003 0.0045,0.0055 0.0058,0.0055 0.0013,0 0.0024,-0.0025 0.0024,-0.0055 z M 26.3563,17.97598 c 0,-0.003 -0.0026,-0.0055 -0.0059,-0.0055 -0.0032,0 -0.0043,0.0025 -0.0024,0.0055 0.0019,0.003 0.0045,0.0055 0.0059,0.0055 0.0013,0 0.0024,-0.0025 0.0024,-0.0055 z m -0.02762,-0.03315 c 0,-0.003 -0.0026,-0.0055 -0.0059,-0.0055 -0.0032,0 -0.0043,0.0025 -0.0024,0.0055 0.0019,0.003 0.0045,0.0055 0.0059,0.0055 0.0013,0 0.0024,-0.0025 0.0024,-0.0055 z m -0.03315,-0.03867 c 0,-0.003 -0.0026,-0.0055 -0.0058,-0.0055 -0.0032,0 -0.0043,0.0025 -0.0024,0.0055 0.0019,0.003 0.0045,0.0055 0.0058,0.0055 0.0013,0 0.0024,-0.0025 0.0024,-0.0055 z"
     id="path3444" />
  <path
     style="fill:#00d455;stroke-width:0.00552427"
     d="m 29.937187,20.852996 c -0.07988,-0.04268 -0.144091,-0.07875 -0.142693,-0.08015 0.0014,-0.0014 0.05681,0.02402 0.123138,0.05649 0.06633,0.03247 0.133025,0.06374 0.148217,0.0695 0.01519,0.0058 0.03508,0.01544 0.04419,0.02151 l 0.01657,0.01104 -0.0221,-3.95e-4 c -0.01742,-3.11e-4 -0.05285,-0.01683 -0.167332,-0.078 z"
     id="path3483" />
  <path
     style="fill:#00d455;stroke-width:0.00552427"
     d=""
     id="path3522" />
</svg>
